<svg width="109" height="71" viewBox="0 0 109 71" fill="none" xmlns="http://www.w3.org/2000/svg">
<circle cx="27" cy="44" r="26.95" stroke="#EBC2C2" stroke-width="0.1" stroke-dasharray="2 2"/>
<circle cx="27" cy="44" r="23" fill="#FFEFE6" fill-opacity="0.62"/>
<circle cx="27" cy="44" r="18.1333" fill="#FFE9BF"/>
<circle cx="27" cy="44" r="12.8" fill="#FFAA5C"/>
<path d="M64.112 10.544V23H62.474V13.712L58.334 23H57.182L53.024 13.694V23H51.386V10.544H53.15L57.758 20.84L62.366 10.544H64.112ZM75.8899 17.69C75.8899 18.002 75.8719 18.332 75.8359 18.68H67.9519C68.0119 19.652 68.3419 20.414 68.9419 20.966C69.5539 21.506 70.2919 21.776 71.1559 21.776C71.8639 21.776 72.4519 21.614 72.9199 21.29C73.3999 20.954 73.7359 20.51 73.9279 19.958H75.6919C75.4279 20.906 74.8999 21.68 74.1079 22.28C73.3159 22.868 72.3319 23.162 71.1559 23.162C70.2199 23.162 69.3799 22.952 68.6359 22.532C67.9039 22.112 67.3279 21.518 66.9079 20.75C66.4879 19.97 66.2779 19.07 66.2779 18.05C66.2779 17.03 66.4819 16.136 66.8899 15.368C67.2979 14.6 67.8679 14.012 68.5999 13.604C69.3439 13.184 70.1959 12.974 71.1559 12.974C72.0919 12.974 72.9199 13.178 73.6399 13.586C74.3599 13.994 74.9119 14.558 75.2959 15.278C75.6919 15.986 75.8899 16.79 75.8899 17.69ZM74.1979 17.348C74.1979 16.724 74.0599 16.19 73.7839 15.746C73.5079 15.29 73.1299 14.948 72.6499 14.72C72.1819 14.48 71.6599 14.36 71.0839 14.36C70.2559 14.36 69.5479 14.624 68.9599 15.152C68.3839 15.68 68.0539 16.412 67.9699 17.348H74.1979ZM82.354 23.162C81.43 23.162 80.59 22.952 79.834 22.532C79.09 22.112 78.502 21.518 78.07 20.75C77.65 19.97 77.44 19.07 77.44 18.05C77.44 17.042 77.656 16.154 78.088 15.386C78.532 14.606 79.132 14.012 79.888 13.604C80.644 13.184 81.49 12.974 82.426 12.974C83.362 12.974 84.208 13.184 84.964 13.604C85.72 14.012 86.314 14.6 86.746 15.368C87.19 16.136 87.412 17.03 87.412 18.05C87.412 19.07 87.184 19.97 86.728 20.75C86.284 21.518 85.678 22.112 84.91 22.532C84.142 22.952 83.29 23.162 82.354 23.162ZM82.354 21.722C82.942 21.722 83.494 21.584 84.01 21.308C84.526 21.032 84.94 20.618 85.252 20.066C85.576 19.514 85.738 18.842 85.738 18.05C85.738 17.258 85.582 16.586 85.27 16.034C84.958 15.482 84.55 15.074 84.046 14.81C83.542 14.534 82.996 14.396 82.408 14.396C81.808 14.396 81.256 14.534 80.752 14.81C80.26 15.074 79.864 15.482 79.564 16.034C79.264 16.586 79.114 17.258 79.114 18.05C79.114 18.854 79.258 19.532 79.546 20.084C79.846 20.636 80.242 21.05 80.734 21.326C81.226 21.59 81.766 21.722 82.354 21.722ZM102.706 13.136L99.6277 23H97.9357L95.5597 15.17L93.1837 23H91.4917L88.3957 13.136H90.0697L92.3377 21.416L94.7857 13.136H96.4597L98.8537 21.434L101.086 13.136H102.706ZM106.455 10.454L106.257 19.454H104.889L104.691 10.454H106.455ZM105.645 23.108C105.333 23.108 105.069 23 104.853 22.784C104.637 22.568 104.529 22.304 104.529 21.992C104.529 21.68 104.637 21.416 104.853 21.2C105.069 20.984 105.333 20.876 105.645 20.876C105.945 20.876 106.197 20.984 106.401 21.2C106.617 21.416 106.725 21.68 106.725 21.992C106.725 22.304 106.617 22.568 106.401 22.784C106.197 23 105.945 23.108 105.645 23.108Z" fill="#716F6F"/>
<path d="M30.5404 38.8771C30.1933 38.8771 29.911 39.1595 29.911 39.5065C29.911 39.8536 30.1934 40.136 30.5404 40.136C30.8875 40.136 31.1699 39.8536 31.1699 39.5065C31.1699 39.1595 30.8875 38.8771 30.5404 38.8771Z" fill="white"/>
<path d="M33.9962 40.5765C33.9937 40.5466 33.9938 40.5164 33.9896 40.4867C33.9724 40.3528 33.9172 40.2023 33.8156 40.0115C33.8129 40.0065 33.8097 40.0017 33.8068 39.9968C33.5822 39.5778 32.1286 37.69 32.0423 37.5668C31.6801 37.0494 30.4925 36.8099 29.7225 36.7066V34.433C29.7225 34.1673 29.4743 33.9597 29.2126 34.0067C29.0962 34.0276 26.4188 34.5377 25.5341 37.0901C24.9861 37.3484 23.538 38.2203 23.0181 40.395C22.936 40.7384 22.8688 41.1155 22.7978 41.5148C22.4902 43.2423 22.1074 45.3923 20.1304 47.3244C19.9593 47.4916 19.9561 47.7659 20.1234 47.9369C20.2904 48.108 20.5648 48.1112 20.7359 47.9439C21.5279 47.1699 22.0874 46.3598 22.4948 45.5578C25.0475 47.3196 27.6092 47.6682 29.2327 47.6682C29.3542 47.6682 29.4703 47.6662 29.5809 47.6628C29.6822 47.8556 29.7789 48.0235 29.8548 48.1548L29.9047 48.2416C29.9699 48.3556 31.2024 50.5763 30.156 53.2651C29.9584 53.9169 30.6796 52.7259 30.1434 53.3835C30.1747 53.4479 30.1307 53.4023 30.1307 53.502C30.1307 53.7412 30.3246 53.9351 30.5639 53.9351C30.8031 53.9351 30.997 53.7386 30.997 53.502V53.3298C30.997 53.2651 31.5126 52.4895 31.4364 50.7366C31.3665 49.1288 30.7748 48.0181 30.6568 47.8117L30.605 47.7216C30.3539 47.2866 29.7245 46.1958 29.8657 45.4765C29.8665 45.4733 29.8672 45.4702 29.8679 45.4671C29.8818 45.3998 29.902 45.3356 29.9306 45.2758C30.0708 44.9825 30.4215 44.7899 30.9731 44.7034C32.2343 44.5056 33.1538 43.7814 33.632 42.6091C33.8242 42.1381 34.0306 40.9941 33.9962 40.5765ZM22.8566 44.7544C23.0045 44.3812 23.1248 44.0131 23.2247 43.6548C24.0702 44.412 25.8842 45.6183 28.9834 45.7915C28.9975 46.1313 29.0823 46.4768 29.1975 46.8018C27.6649 46.7971 25.2499 46.4552 22.8566 44.7544ZM30.8388 43.8475C29.9881 43.981 29.4196 44.3358 29.1489 44.9023C29.1443 44.9119 29.1406 44.9218 29.1362 44.9315C27.0332 44.8306 25.5945 44.2134 24.7455 43.6994C24.0649 43.2874 23.6486 42.8776 23.4613 42.6705C23.5345 42.3186 23.5945 41.982 23.6507 41.6666C23.7195 41.2803 23.7844 40.9152 23.8607 40.5965C24.3789 38.4295 25.9613 37.8441 26.0262 37.821C26.1586 37.7756 26.2609 37.6691 26.3008 37.5349C26.7754 35.9418 28.1133 35.2636 28.8561 35.003V37.0922C28.8561 37.3147 29.0249 37.5011 29.2464 37.5232C30.1903 37.6175 31.185 37.8756 31.3325 38.0636C31.432 38.2058 31.5961 38.4156 31.804 38.6813C32.0667 39.0171 32.573 39.6645 32.8797 40.1304C32.7946 40.2605 32.7458 40.4145 32.7458 40.5765C32.7458 40.8536 32.881 41.097 33.0903 41.2444C32.9618 42.3019 32.4641 43.5926 30.8388 43.8475Z" fill="white"/>
</svg>
