<svg width="97" height="70" viewBox="0 0 97 70" fill="none" xmlns="http://www.w3.org/2000/svg">
<path d="M62.154 10.454L58.518 23H56.682L53.766 12.902L50.742 23L48.924 23.018L45.414 10.454H47.16L49.896 21.092L52.92 10.454H54.756L57.636 21.056L60.39 10.454H62.154ZM68.2485 23.162C67.3245 23.162 66.4845 22.952 65.7285 22.532C64.9845 22.112 64.3965 21.518 63.9645 20.75C63.5445 19.97 63.3345 19.07 63.3345 18.05C63.3345 17.042 63.5505 16.154 63.9825 15.386C64.4265 14.606 65.0265 14.012 65.7825 13.604C66.5385 13.184 67.3845 12.974 68.3205 12.974C69.2565 12.974 70.1025 13.184 70.8585 13.604C71.6145 14.012 72.2085 14.6 72.6405 15.368C73.0845 16.136 73.3065 17.03 73.3065 18.05C73.3065 19.07 73.0785 19.97 72.6225 20.75C72.1785 21.518 71.5725 22.112 70.8045 22.532C70.0365 22.952 69.1845 23.162 68.2485 23.162ZM68.2485 21.722C68.8365 21.722 69.3885 21.584 69.9045 21.308C70.4205 21.032 70.8345 20.618 71.1465 20.066C71.4705 19.514 71.6325 18.842 71.6325 18.05C71.6325 17.258 71.4765 16.586 71.1645 16.034C70.8525 15.482 70.4445 15.074 69.9405 14.81C69.4365 14.534 68.8905 14.396 68.3025 14.396C67.7025 14.396 67.1505 14.534 66.6465 14.81C66.1545 15.074 65.7585 15.482 65.4585 16.034C65.1585 16.586 65.0085 17.258 65.0085 18.05C65.0085 18.854 65.1525 19.532 65.4405 20.084C65.7405 20.636 66.1365 21.05 66.6285 21.326C67.1205 21.59 67.6605 21.722 68.2485 21.722ZM79.7622 23.162C78.8382 23.162 77.9982 22.952 77.2422 22.532C76.4982 22.112 75.9102 21.518 75.4782 20.75C75.0582 19.97 74.8482 19.07 74.8482 18.05C74.8482 17.042 75.0642 16.154 75.4962 15.386C75.9402 14.606 76.5402 14.012 77.2962 13.604C78.0522 13.184 78.8982 12.974 79.8342 12.974C80.7702 12.974 81.6162 13.184 82.3722 13.604C83.1282 14.012 83.7222 14.6 84.1542 15.368C84.5982 16.136 84.8202 17.03 84.8202 18.05C84.8202 19.07 84.5922 19.97 84.1362 20.75C83.6922 21.518 83.0862 22.112 82.3182 22.532C81.5502 22.952 80.6982 23.162 79.7622 23.162ZM79.7622 21.722C80.3502 21.722 80.9022 21.584 81.4182 21.308C81.9342 21.032 82.3482 20.618 82.6602 20.066C82.9842 19.514 83.1462 18.842 83.1462 18.05C83.1462 17.258 82.9902 16.586 82.6782 16.034C82.3662 15.482 81.9582 15.074 81.4542 14.81C80.9502 14.534 80.4042 14.396 79.8162 14.396C79.2162 14.396 78.6642 14.534 78.1602 14.81C77.6682 15.074 77.2722 15.482 76.9722 16.034C76.6722 16.586 76.5222 17.258 76.5222 18.05C76.5222 18.854 76.6662 19.532 76.9542 20.084C77.2542 20.636 77.6502 21.05 78.1422 21.326C78.6342 21.59 79.1742 21.722 79.7622 21.722ZM90.9879 14.486H88.9179V23H87.2799V14.486H86.0019V13.136H87.2799V12.434C87.2799 11.33 87.5619 10.526 88.1259 10.022C88.7019 9.506 89.6199 9.248 90.8799 9.248V10.616C90.1599 10.616 89.6499 10.76 89.3499 11.048C89.0619 11.324 88.9179 11.786 88.9179 12.434V13.136H90.9879V14.486ZM95.0217 10.454L94.8237 19.454H93.4557L93.2577 10.454H95.0217ZM94.2117 23.108C93.8997 23.108 93.6357 23 93.4197 22.784C93.2037 22.568 93.0957 22.304 93.0957 21.992C93.0957 21.68 93.2037 21.416 93.4197 21.2C93.6357 20.984 93.8997 20.876 94.2117 20.876C94.5117 20.876 94.7637 20.984 94.9677 21.2C95.1837 21.416 95.2917 21.68 95.2917 21.992C95.2917 22.304 95.1837 22.568 94.9677 22.784C94.7637 23 94.5117 23.108 94.2117 23.108Z" fill="#716F6F"/>
<circle cx="27" cy="43" r="26.95" stroke="#9A9A9A" stroke-width="0.1" stroke-dasharray="2 2"/>
<circle cx="27" cy="43" r="23" fill="#C3FFB9" fill-opacity="0.68"/>
<circle cx="27" cy="43" r="18.1333" fill="#8BFF89"/>
<circle cx="27" cy="43" r="12.8" fill="#19B500"/>
<path d="M18.0346 39.7485L19.6505 36.9102C20.2811 35.8027 21.3523 34.9919 22.5894 34.6858L23.0027 34.5836C23.3232 34.5043 23.6511 34.4896 23.9774 34.5402L27.2539 35.0473C28.5093 35.2416 29.5332 36.1599 29.8623 37.3869L30.0169 37.963L31.454 38.4243C31.5926 38.4688 31.669 38.6173 31.6244 38.7559C31.58 38.8946 31.4314 38.971 31.2928 38.9264L29.7188 38.4212C29.6335 38.3938 29.5679 38.325 29.5447 38.2384L29.353 37.5235C29.0779 36.4982 28.2223 35.7308 27.1732 35.5684L23.8966 35.0613C23.6399 35.0215 23.3817 35.033 23.1294 35.0954L22.716 35.1977C21.6185 35.4693 20.6682 36.1886 20.1088 37.1711L18.4929 40.0094C18.4442 40.0948 18.3552 40.1427 18.2635 40.1427C18.2193 40.1427 18.1744 40.1315 18.1333 40.1081C18.0067 40.0361 17.9625 39.875 18.0346 39.7485Z" fill="#FEFFFD"/>
<path d="M24.0241 48.964C24.0658 48.8244 24.2128 48.7451 24.3523 48.7868C24.4918 48.8285 24.5711 48.9754 24.5294 49.1149C24.1944 50.2366 23.9965 51.2648 23.9945 51.275C23.9703 51.4014 23.8598 51.4892 23.7358 51.4892C23.7194 51.4892 23.7027 51.4877 23.686 51.4845C23.543 51.4572 23.4492 51.3191 23.4765 51.1761C23.4785 51.1656 23.6811 50.1124 24.0241 48.964Z" fill="#FEFFFD"/>
<path d="M33.499 39.0808L35.2494 39.6179C35.5524 39.7107 35.7961 39.9317 35.918 40.2242C36.0399 40.5168 36.0253 40.8454 35.8779 41.1259L35.0545 42.693L34.7291 43.6446C34.3433 44.7673 33.2866 45.5215 32.0995 45.5215H27.9756C26.9676 45.5215 26.0456 45.9903 25.5092 46.7754C25.3091 47.0683 25.1062 47.48 24.906 47.999C24.8657 48.1037 24.7658 48.1679 24.66 48.1679C24.6285 48.1679 24.5963 48.1622 24.5652 48.1502C24.4293 48.0978 24.3616 47.9452 24.414 47.8093C24.6287 47.2523 24.8507 46.8044 25.0738 46.4779C25.3547 46.0667 25.724 45.7291 26.1506 45.4802C25.2137 45.361 24.3162 44.9872 23.5719 44.3984C23.4578 44.3081 23.4384 44.1422 23.5287 44.028C23.6191 43.9138 23.785 43.8945 23.8991 43.9848C24.7219 44.6357 25.7528 44.9942 26.802 44.9942H32.0995C33.0614 44.9942 33.9178 44.3829 34.2303 43.4732L34.4877 42.7241C34.285 42.6206 33.9907 42.433 33.7256 42.122C33.337 41.6662 32.9403 40.8533 33.1758 39.5308L32.4349 39.293C32.2962 39.2485 32.2199 39.1 32.2644 38.9613C32.3089 38.8227 32.4575 38.7464 32.5961 38.7908L33.499 39.0808ZM35.4111 40.8807C35.4852 40.7396 35.4925 40.5742 35.4312 40.4271C35.3699 40.28 35.2474 40.1688 35.0949 40.1221L33.6834 39.6897C33.4113 41.358 34.2863 42.0245 34.6965 42.2407L35.4111 40.8807Z" fill="#FEFFFD"/>
<path d="M22.1153 36.7047C22.2587 36.6786 22.3958 36.7738 22.4218 36.9171C22.4478 37.0604 22.3527 37.1976 22.2095 37.2236C21.0484 37.4342 20.9369 37.9273 20.9236 38.373C20.8922 39.4265 21.1914 41.8636 22.0256 42.7229C22.206 42.9088 22.3925 42.9992 22.5959 42.9992C24.0182 42.9992 25.3073 42.0711 26.0442 40.5166C26.6368 39.2667 26.7184 37.8774 26.2341 37.2851C25.7388 36.6795 23.9641 36.9408 23.381 37.0266C23.237 37.0479 23.103 36.9483 23.0818 36.8042C23.0605 36.6601 23.1601 36.5261 23.3042 36.5049C24.5397 36.323 26.0356 36.2093 26.6423 36.9513C27.2669 37.7151 27.2168 39.2741 26.5207 40.7426C26.1477 41.5294 25.6265 42.1986 25.0136 42.6778C24.2932 43.241 23.4797 43.5265 22.5959 43.5265C22.2473 43.5265 21.9281 43.3797 21.6472 43.0902C20.6369 42.0493 20.3653 39.4042 20.3965 38.3573C20.4137 37.7785 20.6107 36.9776 22.1153 36.7047Z" fill="#FEFFFD"/>
<path d="M28.601 38.6422C28.3943 38.6422 28.2268 38.4263 28.2268 38.1599C28.2268 37.8936 28.3943 37.6776 28.601 37.6776C28.8076 37.6776 28.9751 37.8936 28.9751 38.1599C28.9751 38.4263 28.8076 38.6422 28.601 38.6422Z" fill="#FEFFFD"/>
</svg>
