<svg width="18" height="17" viewBox="0 0 18 17" fill="none" xmlns="http://www.w3.org/2000/svg">
<path d="M5.11111 8.03007L4.55555 9.79022H5.66666L5.11111 8.03007Z" fill="white"/>
<path d="M15.8333 0.364868H6.94444V3.20383H9.16666V4.33942H1.94444C0.999994 4.33942 0.277771 5.07755 0.277771 6.04279V12.2885C0.277771 13.2538 0.999994 13.9919 1.94444 13.9919H2.49999V16.8876L6 13.9919H9.72222V10.0173H15.8333C16.7778 10.0173 17.5 9.27921 17.5 8.31397V2.06825C17.5 1.103 16.7778 0.364868 15.8333 0.364868ZM6.27777 11.6639L6 10.7555H4.27777L3.94444 11.6639H2.6111L4.44444 6.61059H5.77777L7.61111 11.6639H6.27777ZM14.7222 7.17838V8.31397C14 8.31397 13.2222 8.08685 12.5556 7.74617C11.8889 8.08685 11.1111 8.25719 10.3333 8.31397L10.2778 7.17838C10.6667 7.17838 11.0556 7.1216 11.4444 7.00804C10.9444 6.49703 10.6111 5.87246 10.4444 5.19111H11.6111C11.7778 5.70212 12.1111 6.09957 12.5 6.44025C13.1111 5.92924 13.5 5.19111 13.5556 4.33942H10.2222V3.20383H11.8889V2.06825H13V3.20383H14.8333L14.8889 3.77162C14.9444 4.96399 14.5 6.15635 13.6667 7.00804C14.0556 7.1216 14.3889 7.17838 14.7222 7.17838Z" fill="white"/>
</svg>
