<svg width="14" height="21" viewBox="0 0 14 21" fill="none" xmlns="http://www.w3.org/2000/svg">
<path d="M6.93796 12.9038C8.59795 12.9038 9.92795 11.5342 9.92795 9.83768L9.93795 3.7055C9.93795 2.00893 8.59795 0.639404 6.93796 0.639404C5.27796 0.639404 3.93796 2.00893 3.93796 3.7055V9.83768C3.93796 11.5342 5.27796 12.9038 6.93796 12.9038ZM13.0179 9.83768C12.5979 9.83768 12.2479 10.1443 12.1879 10.5633C11.8179 13.2308 9.46795 15.05 6.93796 15.05C4.40796 15.05 2.05797 13.241 1.68797 10.5633C1.65717 10.361 1.55655 10.1766 1.40433 10.0436C1.2521 9.91047 1.0583 9.83744 0.857968 9.83768C0.337969 9.83768 -0.0620298 10.3078 0.00797004 10.829C0.467969 13.8645 2.96796 16.2458 5.93796 16.7057V19.036C5.93796 19.5981 6.38796 20.058 6.93796 20.058C7.48796 20.058 7.93795 19.5981 7.93795 19.036V16.7057C10.8979 16.2662 13.4079 13.8645 13.8679 10.829C13.884 10.7053 13.8741 10.5795 13.8387 10.46C13.8034 10.3406 13.7435 10.2302 13.663 10.1363C13.5825 10.0424 13.4833 9.96722 13.3721 9.91572C13.2608 9.86422 13.1401 9.83761 13.0179 9.83768Z" fill="white"/>
</svg>
