<svg width="105" height="72" viewBox="0 0 105 72" fill="none" xmlns="http://www.w3.org/2000/svg">
<path d="M68.052 10.454V23H66.414V17.312H60.024V23H58.386V10.454H60.024V15.962H66.414V10.454H68.052ZM75.1509 23.162C74.2269 23.162 73.3869 22.952 72.6309 22.532C71.8869 22.112 71.2989 21.518 70.8669 20.75C70.4469 19.97 70.2369 19.07 70.2369 18.05C70.2369 17.042 70.4529 16.154 70.8849 15.386C71.3289 14.606 71.9289 14.012 72.6849 13.604C73.4409 13.184 74.2869 12.974 75.2229 12.974C76.1589 12.974 77.0049 13.184 77.7609 13.604C78.5169 14.012 79.1109 14.6 79.5429 15.368C79.9869 16.136 80.2089 17.03 80.2089 18.05C80.2089 19.07 79.9809 19.97 79.5249 20.75C79.0809 21.518 78.4749 22.112 77.7069 22.532C76.9389 22.952 76.0869 23.162 75.1509 23.162ZM75.1509 21.722C75.7389 21.722 76.2909 21.584 76.8069 21.308C77.3229 21.032 77.7369 20.618 78.0489 20.066C78.3729 19.514 78.5349 18.842 78.5349 18.05C78.5349 17.258 78.3789 16.586 78.0669 16.034C77.7549 15.482 77.3469 15.074 76.8429 14.81C76.3389 14.534 75.7929 14.396 75.2049 14.396C74.6049 14.396 74.0529 14.534 73.5489 14.81C73.0569 15.074 72.6609 15.482 72.3609 16.034C72.0609 16.586 71.9109 17.258 71.9109 18.05C71.9109 18.854 72.0549 19.532 72.3429 20.084C72.6429 20.636 73.0389 21.05 73.5309 21.326C74.0229 21.59 74.5629 21.722 75.1509 21.722ZM86.6646 23.162C85.7406 23.162 84.9006 22.952 84.1446 22.532C83.4006 22.112 82.8126 21.518 82.3806 20.75C81.9606 19.97 81.7506 19.07 81.7506 18.05C81.7506 17.042 81.9666 16.154 82.3986 15.386C82.8426 14.606 83.4426 14.012 84.1986 13.604C84.9546 13.184 85.8006 12.974 86.7366 12.974C87.6726 12.974 88.5186 13.184 89.2746 13.604C90.0306 14.012 90.6246 14.6 91.0566 15.368C91.5006 16.136 91.7226 17.03 91.7226 18.05C91.7226 19.07 91.4946 19.97 91.0386 20.75C90.5946 21.518 89.9886 22.112 89.2206 22.532C88.4526 22.952 87.6006 23.162 86.6646 23.162ZM86.6646 21.722C87.2526 21.722 87.8046 21.584 88.3206 21.308C88.8366 21.032 89.2506 20.618 89.5626 20.066C89.8866 19.514 90.0486 18.842 90.0486 18.05C90.0486 17.258 89.8926 16.586 89.5806 16.034C89.2686 15.482 88.8606 15.074 88.3566 14.81C87.8526 14.534 87.3066 14.396 86.7186 14.396C86.1186 14.396 85.5666 14.534 85.0626 14.81C84.5706 15.074 84.1746 15.482 83.8746 16.034C83.5746 16.586 83.4246 17.258 83.4246 18.05C83.4246 18.854 83.5686 19.532 83.8566 20.084C84.1566 20.636 84.5526 21.05 85.0446 21.326C85.5366 21.59 86.0766 21.722 86.6646 21.722ZM95.8742 14.486V20.3C95.8742 20.78 95.9762 21.122 96.1802 21.326C96.3842 21.518 96.7382 21.614 97.2422 21.614H98.4482V23H96.9722C96.0602 23 95.3762 22.79 94.9202 22.37C94.4642 21.95 94.2362 21.26 94.2362 20.3V14.486H92.9582V13.136H94.2362V10.652H95.8742V13.136H98.4482V14.486H95.8742ZM102.557 10.454L102.359 19.454H100.991L100.793 10.454H102.557ZM101.747 23.108C101.435 23.108 101.171 23 100.955 22.784C100.739 22.568 100.631 22.304 100.631 21.992C100.631 21.68 100.739 21.416 100.955 21.2C101.171 20.984 101.435 20.876 101.747 20.876C102.047 20.876 102.299 20.984 102.503 21.2C102.719 21.416 102.827 21.68 102.827 21.992C102.827 22.304 102.719 22.568 102.503 22.784C102.299 23 102.047 23.108 101.747 23.108Z" fill="#716F6F"/>
<circle cx="27" cy="45" r="26.95" stroke="#909093" stroke-width="0.1" stroke-dasharray="2 2"/>
<circle cx="27" cy="45" r="23" fill="#DFE6F0"/>
<circle cx="27" cy="45" r="18.1333" fill="#8AB7F6" fill-opacity="0.82"/>
<circle cx="27" cy="45" r="12.8" fill="#537BDD"/>
<path d="M34.7008 40.7287C34.6199 40.5768 34.5333 40.4286 34.4412 40.2842C34.5072 40.227 34.5695 40.1647 34.628 40.0975C34.7479 39.9732 34.8578 39.8395 34.9566 39.6978C35.3284 39.1837 35.5249 38.5637 35.5169 37.9293C35.5193 37.3596 35.2502 36.8227 34.7923 36.4838C34.3167 36.1687 33.7194 36.0994 33.1843 36.297C32.586 36.5076 32.0714 36.905 31.7165 37.4306L31.6567 37.5184C28.8068 35.7452 25.1969 35.7452 22.347 37.5184L22.2872 37.4306C21.9323 36.905 21.4176 36.5076 20.8193 36.297C20.2842 36.0994 19.687 36.1687 19.2114 36.4838C18.7537 36.823 18.4847 37.3596 18.4868 37.9293C18.4788 38.5637 18.6753 39.1837 19.047 39.6978C19.1459 39.8395 19.2558 39.9732 19.3757 40.0975C19.438 40.1622 19.5002 40.2245 19.5625 40.2842C19.4704 40.4299 19.3826 40.5781 19.2992 40.7287C18.1314 41.9394 17.7111 43.6876 18.201 45.2967C18.3594 50.1563 22.4271 53.9673 27.2866 53.809C31.9238 53.6579 35.6479 49.9339 35.7989 45.2967C36.2888 43.6876 35.8686 41.9394 34.7008 40.7287ZM32.1404 37.7313C32.4318 37.2985 32.8548 36.9711 33.3468 36.7975C33.7273 36.6511 34.1546 36.6933 34.4991 36.9115C34.8228 37.1593 35.0098 37.5459 35.0033 37.9535C35.0094 38.4757 34.847 38.9858 34.5402 39.4084C34.4565 39.5282 34.3635 39.6412 34.2619 39.7464C34.2246 39.785 34.1872 39.8217 34.1499 39.8566C33.582 39.0673 32.888 38.377 32.0956 37.8135L32.1404 37.7313ZM27.0046 36.7116C29.5186 36.7118 31.8968 37.8527 33.4701 39.8136C31.1872 38.6575 28.3993 39.5709 27.2432 41.8538C27.1515 42.0349 27.0718 42.2217 27.0046 42.4132C26.1589 39.9992 23.5164 38.7278 21.1023 39.5735C20.9095 39.6411 20.7214 39.7213 20.5392 39.8136C22.1125 37.8528 24.4907 36.7118 27.0046 36.7116ZM27.8618 46.957L27.8152 47.1026L27.0046 49.5902L26.1941 47.1026L26.1474 46.957C26.5242 46.517 26.815 46.0102 27.0046 45.4629C27.1943 46.0103 27.4851 46.5171 27.8618 46.957ZM19.4691 39.4046C19.1623 38.9821 18.9999 38.4719 19.006 37.9498C18.9995 37.5422 19.1865 37.1556 19.5102 36.9077C19.8527 36.6921 20.2767 36.6499 20.655 36.7938C21.147 36.9673 21.57 37.2948 21.8614 37.7276L21.9137 37.806C21.1213 38.3695 20.4272 39.0598 19.8594 39.8491C19.8208 39.8142 19.7835 39.7775 19.7474 39.7389C19.646 39.635 19.553 39.5232 19.4691 39.4046ZM18.5386 43.733C18.5858 42.7184 19.0071 41.7573 19.7212 41.035C21.3191 39.4239 23.9205 39.4132 25.5316 41.0111C26.313 41.7861 26.7508 42.8422 26.7469 43.9428V44.1146C26.6415 46.3813 24.7186 48.1333 22.452 48.028C20.1854 47.9226 18.4333 45.9997 18.5386 43.733ZM32.865 50.8583H32.8594C29.6198 54.0921 24.372 54.0875 21.1382 50.8479C19.9934 49.701 19.2099 48.2438 18.8846 46.6563C20.3838 48.7275 23.2783 49.1911 25.3494 47.6918C25.4861 47.5929 25.6172 47.4867 25.7422 47.3734L26.76 50.5016C26.8032 50.6372 26.9481 50.7121 27.0837 50.669C27.1634 50.6437 27.2258 50.5812 27.2512 50.5016L28.269 47.3734C30.1658 49.0895 33.0947 48.9428 34.8107 47.046C34.923 46.9219 35.0285 46.7918 35.1266 46.6563C34.802 48.2488 34.0154 49.7103 32.865 50.8583ZM34.2881 46.8505C32.6898 48.4612 30.0884 48.4713 28.4777 46.8729C27.7391 46.1401 27.3061 45.1542 27.2661 44.1146V43.9428C27.272 41.6736 29.1163 39.839 31.3854 39.8449C33.6545 39.8508 35.4892 41.6951 35.4833 43.9642C35.4804 45.0462 35.051 46.0833 34.2881 46.8505Z" fill="white"/>
<path d="M32.5457 42.7998L32.5326 42.7849C31.893 42.1456 30.8564 42.1456 30.2168 42.7849C29.5766 43.4239 29.5756 44.4609 30.2146 45.1012C30.8537 45.7414 31.8907 45.7424 32.5309 45.1033C33.1662 44.4693 33.1728 43.442 32.5457 42.7998ZM32.1591 44.7346C31.7182 45.1689 31.0087 45.1635 30.5745 44.7226C30.1452 44.2868 30.1448 43.5873 30.5735 43.1509C31.011 42.714 31.7197 42.714 32.1572 43.1509L32.1703 43.1621C32.5962 43.6018 32.5904 44.302 32.1572 44.7346H32.1591Z" fill="white"/>
<path d="M23.8055 42.8017L23.7906 42.7849C23.1511 42.1456 22.1144 42.1456 21.4748 42.7849C20.8359 43.4237 20.8358 44.4595 21.4746 45.0985C21.4745 45.0984 21.4747 45.0986 21.4746 45.0985L21.4767 45.1006C22.1115 45.7437 23.1475 45.7504 23.7906 45.1156C24.4337 44.4808 24.4404 43.4448 23.8055 42.8017ZM23.4218 44.7466C22.9773 45.1772 22.2679 45.1659 21.8373 44.7214C21.4121 44.2825 21.417 43.5839 21.8484 43.1509H21.8502C22.2877 42.714 22.9964 42.714 23.4339 43.1509L23.447 43.1621C23.8776 43.6066 23.8663 44.316 23.4218 44.7466Z" fill="white"/>
</svg>
