<svg width="20" height="19" viewBox="0 0 20 19" fill="none" xmlns="http://www.w3.org/2000/svg">
<path d="M1.5101 9.55799C-1.26808 13.6433 3.30854 14.8961 6.24995 15.2774C7.72049 15.6041 8.62114 18.0687 10.5925 18.2187C13.8607 18.6109 14.2574 14.8526 13.3705 13.6432C11.9325 11.6822 12.4973 10.4427 12.007 9.62569C9.21313 4.94391 7.22945 8.31832 5.63399 8.31838C3.0194 8.31838 1.83687 9.23117 1.5101 9.55799Z" fill="white"/>
<path d="M4.45145 1.22395C2.3271 1.22389 2.00028 6.28945 4.61486 7.10676C6.73921 7.10676 7.71968 1.38736 4.45145 1.22395Z" fill="white"/>
<path d="M10.5777 0.19905C8.52822 -0.360065 6.87984 4.44094 9.18717 5.91751C11.2366 6.47656 13.6877 1.21678 10.5777 0.19905Z" fill="white"/>
<path d="M16.6868 3.11712C15.0455 1.7684 11.5771 5.47471 13.0783 7.76608C14.7196 9.11475 19.1082 5.31824 16.6868 3.11712Z" fill="white"/>
<path d="M18.9483 8.7844C17.8922 7.04035 13.5711 9.29043 14.2 11.8432C15.2561 13.5873 20.439 11.5487 18.9483 8.7844Z" fill="white"/>
</svg>
