<svg width="191" height="397" viewBox="0 0 191 397" fill="none" xmlns="http://www.w3.org/2000/svg">
<path d="M0.562256 34.7543C0.562256 21.7226 0.562256 15.2067 3.5879 10.4202C5.28091 7.74183 7.60377 5.48995 10.3665 3.84865C15.3039 0.915405 22.025 0.915405 35.4673 0.915405L156.003 0.915405C169.445 0.915405 176.167 0.915405 181.103 3.84865C183.866 5.48995 186.189 7.74183 187.882 10.4202C190.908 15.2067 190.908 21.7226 190.908 34.7543L190.908 362.245C190.908 375.276 190.908 381.793 187.882 386.578C186.189 389.258 183.866 391.508 181.103 393.15C176.167 396.084 169.445 396.084 156.003 396.084H35.4673C22.025 396.084 15.3039 396.084 10.3665 393.15C7.60377 391.508 5.28091 389.258 3.5879 386.578C0.562256 381.793 0.562256 375.276 0.562256 362.245L0.562256 34.7543Z" fill="url(#paint0_linear)"/>
<defs>
<linearGradient id="paint0_linear" x1="95.735" y1="0.915405" x2="95.735" y2="396.084" gradientUnits="userSpaceOnUse">
<stop stop-color="#17171A"/>
<stop offset="1" stop-color="#17161A"/>
</linearGradient>
</defs>
</svg>
