<svg width="54" height="54" viewBox="0 0 54 54" fill="none" xmlns="http://www.w3.org/2000/svg">
<circle cx="27" cy="27" r="26.95" stroke="#A99B9B" stroke-width="0.1" stroke-dasharray="2 2"/>
<circle cx="27" cy="27" r="23" fill="#FFE8DC"/>
<circle cx="27" cy="27" r="18.1333" fill="#FFC6A7"/>
<circle cx="27" cy="27" r="12.8" fill="#FFAC7E"/>
<path d="M25.1192 29.4148H28.8808C28.218 28.5937 27.8486 27.5663 27.8335 26.5019C27.8184 25.4374 28.1585 24.3995 28.7977 23.559C29.4369 22.7186 30.3372 22.1257 31.3502 21.878C32.3631 21.6304 33.4285 21.7428 34.3706 22.1966C35.3128 22.6505 36.0755 23.4188 36.5333 24.375C36.9911 25.3312 37.1166 26.4183 36.8891 27.4571C36.6616 28.4959 36.0946 29.4245 35.2817 30.09C34.4687 30.7555 33.4583 31.1182 32.4167 31.1182H21.5833C20.5417 31.1182 19.5313 30.7555 18.7183 30.09C17.9054 29.4245 17.3384 28.4959 17.1109 27.4571C16.8834 26.4183 17.0089 25.3312 17.4667 24.375C17.9245 23.4188 18.6872 22.6505 19.6294 22.1966C20.5715 21.7428 21.6369 21.6304 22.6498 21.878C23.6628 22.1257 24.5631 22.7186 25.2023 23.559C25.8415 24.3995 26.1816 25.4374 26.1665 26.5019C26.1514 27.5663 25.782 28.5937 25.1192 29.4148V29.4148ZM21.5833 27.7114C21.9148 27.7114 22.2328 27.5768 22.4672 27.3372C22.7016 27.0976 22.8333 26.7727 22.8333 26.4339C22.8333 26.095 22.7016 25.7701 22.4672 25.5305C22.2328 25.2909 21.9148 25.1563 21.5833 25.1563C21.2518 25.1563 20.9338 25.2909 20.6994 25.5305C20.465 25.7701 20.3333 26.095 20.3333 26.4339C20.3333 26.7727 20.465 27.0976 20.6994 27.3372C20.9338 27.5768 21.2518 27.7114 21.5833 27.7114V27.7114ZM32.4167 27.7114C32.7482 27.7114 33.0662 27.5768 33.3006 27.3372C33.535 27.0976 33.6667 26.7727 33.6667 26.4339C33.6667 26.095 33.535 25.7701 33.3006 25.5305C33.0662 25.2909 32.7482 25.1563 32.4167 25.1563C32.0852 25.1563 31.7672 25.2909 31.5328 25.5305C31.2984 25.7701 31.1667 26.095 31.1667 26.4339C31.1667 26.7727 31.2984 27.0976 31.5328 27.3372C31.7672 27.5768 32.0852 27.7114 32.4167 27.7114Z" fill="white"/>
</svg>
