<svg width="121" height="245" viewBox="0 0 121 245" fill="none" xmlns="http://www.w3.org/2000/svg">
<path fill-rule="evenodd" clip-rule="evenodd" d="M103.114 1.7937H16.9074C7.73475 1.7937 0.298828 9.1731 0.298828 18.276V228.361C0.298828 237.464 7.73475 244.843 16.9074 244.843H103.114C112.287 244.843 119.723 237.464 119.723 228.361V125.804H119.986C120.423 125.804 120.777 125.452 120.777 125.019V95.7169C120.777 95.2834 120.423 94.932 119.986 94.932H119.723V75.8335H119.986C120.423 75.8335 120.777 75.4821 120.777 75.0486V61.1825C120.777 60.749 120.423 60.3976 119.986 60.3976H119.723V18.276C119.723 9.1731 112.287 1.7937 103.114 1.7937ZM2.40786 18.276C2.40786 10.329 8.89953 3.8867 16.9074 3.8867H103.114C111.122 3.8867 117.614 10.329 117.614 18.276V228.361C117.614 236.308 111.122 242.75 103.114 242.75H16.9074C8.89953 242.75 2.40786 236.308 2.40786 228.361V18.276Z" fill="#424242"/>
<path d="M0.298828 21.9388V25.0783H87.2963H90.4598H119.723V21.9388H90.4598V1.7937H87.2963V21.9388H0.298828Z" fill="#353535"/>
<path d="M119.704 229.145H0.3173C0.368146 230.222 0.523131 231.272 0.772471 232.285H119.249C119.498 231.272 119.653 230.222 119.704 229.145Z" fill="#353535"/>
<path d="M2.4082 20.329C2.4082 11.2481 9.76974 3.8866 18.8507 3.8866H101.171C110.252 3.8866 117.614 11.2481 117.614 20.329V226.307C117.614 235.388 110.252 242.75 101.171 242.75H18.8506C9.76972 242.75 2.4082 235.388 2.4082 226.307V20.329Z" fill="#1D1D1D"/>
<rect x="5.98493" y="26.2744" width="108.052" height="190.949" fill="#303030" stroke="black" stroke-width="0.298954"/>
<rect x="55.9248" y="20.1075" width="8.43612" height="3.40112" rx="1.70056" fill="black"/>
<rect x="48.0161" y="10.9505" width="24.2538" height="2.61625" rx="1.30812" fill="#424242"/>
<ellipse cx="20.7301" cy="12.1279" rx="2.50447" ry="2.48543" fill="#424242"/>
<ellipse cx="20.7297" cy="12.1279" rx="1.44996" ry="1.43894" fill="#212121"/>
<g clip-path="url(#clip0)">
<rect width="107.623" height="191.33" transform="translate(6.27783 26.9058)" fill="#FFFBF4"/>
<circle opacity="0.23" cx="79.5259" cy="158.158" r="47.8326" fill="#BADEFF"/>
<ellipse opacity="0.23" cx="21.8086" cy="92.9746" rx="43.0493" ry="43.9462" fill="#FFD076" fill-opacity="0.5"/>
<path d="M41.0186 56.5642C41.4637 56.5642 41.8384 56.7141 42.1425 57.0138C42.4466 57.3135 42.5987 57.6815 42.5987 58.1179C42.5987 58.5542 42.4466 58.9223 42.1425 59.222C41.8384 59.5217 41.4637 59.6715 41.0186 59.6715H40.2054V61.1921H39.293V56.5642H41.0186ZM41.0186 58.8187C41.2125 58.8187 41.3734 58.7526 41.5012 58.6203C41.629 58.4837 41.6929 58.3162 41.6929 58.1179C41.6929 57.9151 41.629 57.7477 41.5012 57.6154C41.3734 57.4832 41.2125 57.4171 41.0186 57.4171H40.2054V58.8187H41.0186ZM43.6541 59.8897C43.7687 60.304 44.0794 60.5112 44.5863 60.5112C44.9124 60.5112 45.1593 60.401 45.3267 60.1806L46.0143 60.5773C45.6882 61.0489 45.2077 61.2847 44.5731 61.2847C44.0265 61.2847 43.588 61.1194 43.2574 60.7889C42.9268 60.4583 42.7616 60.0418 42.7616 59.5393C42.7616 59.0413 42.9246 58.627 43.2508 58.2964C43.577 57.9614 43.9957 57.7939 44.5069 57.7939C44.9918 57.7939 45.3907 57.9614 45.7036 58.2964C46.0209 58.6314 46.1796 59.0457 46.1796 59.5393C46.1796 59.6495 46.1686 59.7663 46.1465 59.8897H43.6541ZM43.6409 59.2286H45.3267C45.2783 59.0038 45.1769 58.8363 45.0226 58.7261C44.8728 58.6159 44.7009 58.5608 44.5069 58.5608C44.2778 58.5608 44.0882 58.6203 43.9384 58.7394C43.7885 58.8539 43.6893 59.017 43.6409 59.2286ZM48.569 58.7063H47.8219V60.0814C47.8219 60.196 47.8505 60.2798 47.9078 60.3327C47.9651 60.3856 48.0489 60.4164 48.1591 60.4252C48.2692 60.4296 48.4059 60.4274 48.569 60.4186V61.1921C47.9828 61.2583 47.5684 61.2032 47.326 61.0269C47.088 60.8506 46.969 60.5354 46.969 60.0814V58.7063H46.3938V57.8865H46.969V57.2188L47.8219 56.9609V57.8865H48.569V58.7063ZM53.9754 56.5642V57.4369H52.7259V61.1921H51.8135V57.4369H50.5706V56.5642H53.9754ZM54.8783 58.4551C54.9576 58.2435 55.0876 58.0848 55.2684 57.9791C55.4535 57.8733 55.6584 57.8204 55.8832 57.8204V58.7724C55.6232 58.7416 55.3896 58.7944 55.1824 58.9311C54.9797 59.0677 54.8783 59.2947 54.8783 59.612V61.1921H54.0254V57.8865H54.8783V58.4551ZM58.7716 57.8865H59.6245V61.1921H58.7716V60.8021C58.516 61.1238 58.1568 61.2847 57.694 61.2847C57.2532 61.2847 56.8742 61.1172 56.5568 60.7822C56.2439 60.4429 56.0874 60.0286 56.0874 59.5393C56.0874 59.0501 56.2439 58.638 56.5568 58.303C56.8742 57.9636 57.2532 57.7939 57.694 57.7939C58.1568 57.7939 58.516 57.9548 58.7716 58.2766V57.8865ZM57.1981 60.2137C57.37 60.3856 57.5882 60.4715 57.8526 60.4715C58.1171 60.4715 58.3353 60.3856 58.5072 60.2137C58.6835 60.0374 58.7716 59.8126 58.7716 59.5393C58.7716 59.2661 58.6835 59.0435 58.5072 58.8716C58.3353 58.6953 58.1171 58.6071 57.8526 58.6071C57.5882 58.6071 57.37 58.6953 57.1981 58.8716C57.0262 59.0435 56.9403 59.2661 56.9403 59.5393C56.9403 59.8126 57.0262 60.0374 57.1981 60.2137ZM62.2358 57.7939C62.5972 57.7939 62.8947 57.9151 63.1283 58.1576C63.3663 58.4 63.4853 58.7349 63.4853 59.1625V61.1921H62.6325V59.2683C62.6325 59.0479 62.5729 58.8804 62.4539 58.7658C62.3349 58.6468 62.1763 58.5873 61.9779 58.5873C61.7576 58.5873 61.5813 58.6556 61.449 58.7922C61.3168 58.9289 61.2507 59.1338 61.2507 59.4071V61.1921H60.3978V57.8865H61.2507V58.2567C61.4578 57.9482 61.7862 57.7939 62.2358 57.7939ZM65.0003 58.8253C65.0003 58.9134 65.0576 58.9862 65.1722 59.0435C65.2912 59.0964 65.4344 59.1448 65.6019 59.1889C65.7694 59.2286 65.9369 59.2815 66.1044 59.3476C66.2718 59.4093 66.4129 59.5151 66.5275 59.6649C66.6465 59.8148 66.706 60.0021 66.706 60.2269C66.706 60.5663 66.5782 60.8285 66.3225 61.0136C66.0713 61.1943 65.7562 61.2847 65.3771 61.2847C64.6984 61.2847 64.2356 61.0224 63.9887 60.498L64.7292 60.0814C64.8262 60.3679 65.0421 60.5112 65.3771 60.5112C65.6812 60.5112 65.8333 60.4164 65.8333 60.2269C65.8333 60.1387 65.7738 60.0682 65.6548 60.0153C65.5402 59.958 65.3992 59.9073 65.2317 59.8633C65.0642 59.8192 64.8967 59.7641 64.7292 59.698C64.5617 59.6319 64.4185 59.5283 64.2995 59.3873C64.1849 59.2418 64.1276 59.0611 64.1276 58.8451C64.1276 58.519 64.2466 58.2633 64.4846 58.0782C64.727 57.8887 65.0267 57.7939 65.3837 57.7939C65.6526 57.7939 65.8972 57.8556 66.1176 57.9791C66.338 58.0981 66.5121 58.27 66.6399 58.4947L65.9126 58.8914C65.8068 58.6666 65.6305 58.5542 65.3837 58.5542C65.2735 58.5542 65.181 58.5785 65.1061 58.627C65.0355 58.6754 65.0003 58.7416 65.0003 58.8253ZM67.2545 61.1921V56.3659H68.1073V61.1921H67.2545ZM71.4002 57.8865H72.2531V61.1921H71.4002V60.8021C71.1446 61.1238 70.7854 61.2847 70.3226 61.2847C69.8818 61.2847 69.5028 61.1172 69.1854 60.7822C68.8725 60.4429 68.716 60.0286 68.716 59.5393C68.716 59.0501 68.8725 58.638 69.1854 58.303C69.5028 57.9636 69.8818 57.7939 70.3226 57.7939C70.7854 57.7939 71.1446 57.9548 71.4002 58.2766V57.8865ZM69.8267 60.2137C69.9986 60.3856 70.2168 60.4715 70.4812 60.4715C70.7457 60.4715 70.9639 60.3856 71.1358 60.2137C71.3121 60.0374 71.4002 59.8126 71.4002 59.5393C71.4002 59.2661 71.3121 59.0435 71.1358 58.8716C70.9639 58.6953 70.7457 58.6071 70.4812 58.6071C70.2168 58.6071 69.9986 58.6953 69.8267 58.8716C69.6548 59.0435 69.5689 59.2661 69.5689 59.5393C69.5689 59.8126 69.6548 60.0374 69.8267 60.2137ZM74.9172 58.7063H74.1702V60.0814C74.1702 60.196 74.1988 60.2798 74.2561 60.3327C74.3134 60.3856 74.3972 60.4164 74.5074 60.4252C74.6175 60.4296 74.7542 60.4274 74.9172 60.4186V61.1921C74.331 61.2583 73.9167 61.2032 73.6743 61.0269C73.4363 60.8506 73.3173 60.5354 73.3173 60.0814V58.7063H72.7421V57.8865H73.3173V57.2188L74.1702 56.9609V57.8865H74.9172V58.7063ZM78.2317 60.7822C77.8923 61.1172 77.478 61.2847 76.9888 61.2847C76.4995 61.2847 76.0852 61.1172 75.7458 60.7822C75.4109 60.4429 75.2434 60.0286 75.2434 59.5393C75.2434 59.0501 75.4109 58.638 75.7458 58.303C76.0852 57.9636 76.4995 57.7939 76.9888 57.7939C77.478 57.7939 77.8923 57.9636 78.2317 58.303C78.5711 58.638 78.7407 59.0501 78.7407 59.5393C78.7407 60.0286 78.5711 60.4429 78.2317 60.7822ZM76.3475 60.1938C76.5194 60.3657 76.7331 60.4517 76.9888 60.4517C77.2444 60.4517 77.4582 60.3657 77.63 60.1938C77.8019 60.0219 77.8879 59.8038 77.8879 59.5393C77.8879 59.2749 77.8019 59.0567 77.63 58.8848C77.4582 58.7129 77.2444 58.627 76.9888 58.627C76.7331 58.627 76.5194 58.7129 76.3475 58.8848C76.18 59.0567 76.0962 59.2749 76.0962 59.5393C76.0962 59.8038 76.18 60.0219 76.3475 60.1938ZM80.1936 58.4551C80.2729 58.2435 80.4029 58.0848 80.5836 57.9791C80.7688 57.8733 80.9737 57.8204 81.1985 57.8204V58.7724C80.9384 58.7416 80.7048 58.7944 80.4977 58.9311C80.2949 59.0677 80.1936 59.2947 80.1936 59.612V61.1921H79.3407V57.8865H80.1936V58.4551Z" fill="#417640"/>
<path d="M54.3589 47.3969C52.592 49.9951 55.5027 50.7919 57.3735 51.0344C58.3087 51.2422 58.8816 52.8097 60.1353 52.9051C62.2139 53.1545 62.4662 50.7642 61.9021 49.995C60.9876 48.7479 61.3468 47.9595 61.035 47.4399C59.2581 44.4623 57.9964 46.6084 56.9817 46.6085C55.3188 46.6085 54.5668 47.189 54.3589 47.3969Z" fill="#417640"/>
<path d="M56.2296 42.0964C54.8785 42.0964 54.6707 45.3181 56.3336 45.8379C57.6846 45.8379 58.3082 42.2004 56.2296 42.0964Z" fill="#417640"/>
<path d="M60.126 41.4446C58.8226 41.089 57.7742 44.1424 59.2417 45.0815C60.5451 45.437 62.104 42.0918 60.126 41.4446Z" fill="#FFCC6F"/>
<path d="M64.0111 43.3005C62.9672 42.4427 60.7613 44.7999 61.7161 46.2572C62.76 47.115 65.5511 44.7004 64.0111 43.3005Z" fill="#375CE0"/>
<path d="M65.4498 46.9048C64.7781 45.7956 62.0299 47.2267 62.4299 48.8503C63.1016 49.9595 66.3979 48.663 65.4498 46.9048Z" fill="#375CE0"/>
<rect x="19.5811" y="114.649" width="81.0164" height="11.6592" rx="0.747384" fill="white" stroke="#C5C5C5" stroke-width="0.298954"/>
<rect x="19.5811" y="134.081" width="81.0164" height="11.6592" rx="0.747384" fill="white" stroke="#C5C5C5" stroke-width="0.298954"/>
<rect x="19.5811" y="153.513" width="81.0164" height="11.6592" rx="0.747384" fill="white" stroke="#C5C5C5" stroke-width="0.298954"/>
<path d="M15.5454 37.9671L13.7517 36.1734L15.5454 34.3796" stroke="#888888" stroke-width="0.597907" stroke-linecap="round" stroke-linejoin="round"/>
<path d="M18.4242 79.7519C18.4242 79.3824 18.5067 79.0524 18.6717 78.7618C18.8403 78.4676 19.0681 78.2398 19.3551 78.0784C19.6457 77.9133 19.9704 77.8308 20.3291 77.8308C20.7488 77.8308 21.1166 77.9385 21.4323 78.1537C21.7479 78.3689 21.9686 78.6667 22.0941 79.047H21.2278C21.1417 78.8676 21.0197 78.7331 20.8618 78.6434C20.7076 78.5537 20.5282 78.5089 20.3237 78.5089C20.1049 78.5089 19.9094 78.5609 19.7372 78.6649C19.5686 78.7654 19.4358 78.9089 19.339 79.0954C19.2457 79.282 19.1991 79.5008 19.1991 79.7519C19.1991 79.9994 19.2457 80.2183 19.339 80.4084C19.4358 80.595 19.5686 80.7402 19.7372 80.8443C19.9094 80.9447 20.1049 80.995 20.3237 80.995C20.5282 80.995 20.7076 80.9501 20.8618 80.8604C21.0197 80.7672 21.1417 80.6308 21.2278 80.4515H22.0941C21.9686 80.8353 21.7479 81.1349 21.4323 81.3501C21.1201 81.5618 20.7524 81.6676 20.3291 81.6676C19.9704 81.6676 19.6457 81.5869 19.3551 81.4254C19.0681 81.2604 18.8403 81.0326 18.6717 80.742C18.5067 80.4515 18.4242 80.1214 18.4242 79.7519ZM23.491 79.1169C23.5878 78.9591 23.7134 78.8353 23.8676 78.7456C24.0255 78.6559 24.2049 78.6111 24.4058 78.6111V79.4021H24.2067C23.9699 79.4021 23.7905 79.4577 23.6685 79.5689C23.5502 79.6802 23.491 79.8739 23.491 80.1501V81.6353H22.7376V78.6541H23.491V79.1169ZM27.6845 80.0802C27.6845 80.1878 27.6773 80.2846 27.663 80.3707H25.4836C25.5015 80.586 25.5769 80.7546 25.7096 80.8766C25.8423 80.9985 26.0056 81.0595 26.1993 81.0595C26.4791 81.0595 26.6782 80.9394 26.7966 80.699H27.6092C27.5231 80.986 27.358 81.2228 27.1141 81.4093C26.8701 81.5923 26.5706 81.6837 26.2154 81.6837C25.9284 81.6837 25.6701 81.621 25.4405 81.4954C25.2145 81.3663 25.037 81.1851 24.9078 80.9519C24.7823 80.7187 24.7195 80.4497 24.7195 80.1447C24.7195 79.8362 24.7823 79.5654 24.9078 79.3322C25.0334 79.099 25.2092 78.9196 25.4352 78.7941C25.6612 78.6685 25.9213 78.6057 26.2154 78.6057C26.4988 78.6057 26.7518 78.6667 26.9742 78.7887C27.2002 78.9107 27.3742 79.0846 27.4962 79.3107C27.6217 79.5331 27.6845 79.7896 27.6845 80.0802ZM26.9042 79.8649C26.9006 79.6712 26.8307 79.5169 26.6944 79.4021C26.558 79.2837 26.3912 79.2246 26.1939 79.2246C26.0074 79.2246 25.8495 79.282 25.7204 79.3968C25.5948 79.508 25.5177 79.664 25.489 79.8649H26.9042ZM28.0407 80.134C28.0407 79.8326 28.0999 79.5654 28.2182 79.3322C28.3402 79.099 28.5034 78.9196 28.7079 78.7941C28.916 78.6685 29.1474 78.6057 29.4021 78.6057C29.6245 78.6057 29.8182 78.6506 29.9833 78.7402C30.1519 78.8299 30.2864 78.9429 30.3868 79.0793V78.6541H31.1456V81.6353H30.3868V81.1994C30.29 81.3394 30.1555 81.4559 29.9833 81.5492C29.8146 81.6389 29.6191 81.6837 29.3967 81.6837C29.1456 81.6837 28.916 81.6192 28.7079 81.49C28.5034 81.3609 28.3402 81.1797 28.2182 80.9465C28.0999 80.7098 28.0407 80.4389 28.0407 80.134ZM30.3868 80.1447C30.3868 79.9618 30.351 79.8057 30.2792 79.6766C30.2075 79.5438 30.1106 79.4434 29.9886 79.3752C29.8667 79.3035 29.7357 79.2676 29.5958 79.2676C29.4559 79.2676 29.3268 79.3017 29.2084 79.3698C29.09 79.438 28.9931 79.5385 28.9178 79.6712C28.846 79.8003 28.8102 79.9546 28.8102 80.134C28.8102 80.3133 28.846 80.4712 28.9178 80.6075C28.9931 80.7402 29.09 80.8425 29.2084 80.9142C29.3303 80.986 29.4595 81.0219 29.5958 81.0219C29.7357 81.0219 29.8667 80.9878 29.9886 80.9196C30.1106 80.8479 30.2075 80.7474 30.2792 80.6183C30.351 80.4855 30.3868 80.3277 30.3868 80.1447ZM32.7585 79.273V80.7151C32.7585 80.8156 32.7818 80.8891 32.8285 80.9358C32.8787 80.9788 32.9612 81.0003 33.076 81.0003H33.4258V81.6353H32.9522C32.3173 81.6353 31.9998 81.3268 31.9998 80.7098V79.273H31.6446V78.6541H31.9998V77.9169H32.7585V78.6541H33.4258V79.273H32.7585ZM36.7389 80.0802C36.7389 80.1878 36.7318 80.2846 36.7174 80.3707H34.538C34.556 80.586 34.6313 80.7546 34.764 80.8766C34.8968 80.9985 35.06 81.0595 35.2537 81.0595C35.5336 81.0595 35.7327 80.9394 35.851 80.699H36.6636C36.5775 80.986 36.4125 81.2228 36.1685 81.4093C35.9246 81.5923 35.625 81.6837 35.2699 81.6837C34.9829 81.6837 34.7246 81.621 34.495 81.4954C34.269 81.3663 34.0914 81.1851 33.9623 80.9519C33.8367 80.7187 33.7739 80.4497 33.7739 80.1447C33.7739 79.8362 33.8367 79.5654 33.9623 79.3322C34.0878 79.099 34.2636 78.9196 34.4896 78.7941C34.7156 78.6685 34.9757 78.6057 35.2699 78.6057C35.5533 78.6057 35.8062 78.6667 36.0286 78.7887C36.2546 78.9107 36.4286 79.0846 36.5506 79.3107C36.6762 79.5331 36.7389 79.7896 36.7389 80.0802ZM35.9587 79.8649C35.9551 79.6712 35.8851 79.5169 35.7488 79.4021C35.6125 79.2837 35.4457 79.2246 35.2484 79.2246C35.0618 79.2246 34.904 79.282 34.7748 79.3968C34.6492 79.508 34.5721 79.664 34.5434 79.8649H35.9587ZM38.3773 80.134C38.3773 79.8326 38.4365 79.5654 38.5549 79.3322C38.6769 79.099 38.8401 78.9196 39.0446 78.7941C39.2527 78.6685 39.4841 78.6057 39.7388 78.6057C39.9612 78.6057 40.1549 78.6506 40.3199 78.7402C40.4885 78.8299 40.6231 78.9429 40.7235 79.0793V78.6541H41.4823V81.6353H40.7235V81.1994C40.6267 81.3394 40.4921 81.4559 40.3199 81.5492C40.1513 81.6389 39.9558 81.6837 39.7334 81.6837C39.4823 81.6837 39.2527 81.6192 39.0446 81.49C38.8401 81.3609 38.6769 81.1797 38.5549 80.9465C38.4365 80.7098 38.3773 80.4389 38.3773 80.134ZM40.7235 80.1447C40.7235 79.9618 40.6876 79.8057 40.6159 79.6766C40.5441 79.5438 40.4473 79.4434 40.3253 79.3752C40.2033 79.3035 40.0724 79.2676 39.9325 79.2676C39.7926 79.2676 39.6634 79.3017 39.545 79.3698C39.4267 79.438 39.3298 79.5385 39.2545 79.6712C39.1827 79.8003 39.1468 79.9546 39.1468 80.134C39.1468 80.3133 39.1827 80.4712 39.2545 80.6075C39.3298 80.7402 39.4267 80.8425 39.545 80.9142C39.667 80.986 39.7962 81.0219 39.9325 81.0219C40.0724 81.0219 40.2033 80.9878 40.3253 80.9196C40.4473 80.8479 40.5441 80.7474 40.6159 80.6183C40.6876 80.4855 40.7235 80.3277 40.7235 80.1447ZM43.8701 78.6111C44.2252 78.6111 44.5122 78.7241 44.7311 78.9501C44.9499 79.1725 45.0593 79.4846 45.0593 79.8864V81.6353H44.3059V79.9887C44.3059 79.7519 44.2467 79.5707 44.1284 79.4452C44.01 79.316 43.8485 79.2515 43.6441 79.2515C43.436 79.2515 43.271 79.316 43.149 79.4452C43.0306 79.5707 42.9714 79.7519 42.9714 79.9887V81.6353H42.2181V78.6541H42.9714V79.0255C43.0719 78.8963 43.1992 78.7959 43.3535 78.7241C43.5113 78.6488 43.6835 78.6111 43.8701 78.6111ZM46.8642 80.134C46.8642 79.8326 46.9234 79.5654 47.0418 79.3322C47.1638 79.099 47.327 78.9196 47.5315 78.7941C47.7396 78.6685 47.971 78.6057 48.2257 78.6057C48.4481 78.6057 48.6418 78.6506 48.8068 78.7402C48.9754 78.8299 49.11 78.9429 49.2104 79.0793V78.6541H49.9692V81.6353H49.2104V81.1994C49.1136 81.3394 48.979 81.4559 48.8068 81.5492C48.6382 81.6389 48.4427 81.6837 48.2203 81.6837C47.9692 81.6837 47.7396 81.6192 47.5315 81.49C47.327 81.3609 47.1638 81.1797 47.0418 80.9465C46.9234 80.7098 46.8642 80.4389 46.8642 80.134ZM49.2104 80.1447C49.2104 79.9618 49.1745 79.8057 49.1028 79.6766C49.031 79.5438 48.9342 79.4434 48.8122 79.3752C48.6902 79.3035 48.5593 79.2676 48.4194 79.2676C48.2795 79.2676 48.1503 79.3017 48.0319 79.3698C47.9136 79.438 47.8167 79.5385 47.7414 79.6712C47.6696 79.8003 47.6337 79.9546 47.6337 80.134C47.6337 80.3133 47.6696 80.4712 47.7414 80.6075C47.8167 80.7402 47.9136 80.8425 48.0319 80.9142C48.1539 80.986 48.2831 81.0219 48.4194 81.0219C48.5593 81.0219 48.6902 80.9878 48.8122 80.9196C48.9342 80.8479 49.031 80.7474 49.1028 80.6183C49.1745 80.4855 49.2104 80.3277 49.2104 80.1447ZM50.5112 80.1447C50.5112 79.8362 50.574 79.5672 50.6996 79.3376C50.8251 79.1044 50.9991 78.925 51.2215 78.7994C51.444 78.6703 51.6987 78.6057 51.9857 78.6057C52.3552 78.6057 52.6601 78.699 52.9005 78.8855C53.1444 79.0685 53.3076 79.3268 53.3901 79.6604H52.5776C52.5345 79.5313 52.461 79.4308 52.357 79.3591C52.2565 79.2837 52.131 79.2461 51.9803 79.2461C51.765 79.2461 51.5946 79.325 51.4691 79.4828C51.3435 79.6371 51.2807 79.8577 51.2807 80.1447C51.2807 80.4281 51.3435 80.6488 51.4691 80.8066C51.5946 80.9609 51.765 81.038 51.9803 81.038C52.2852 81.038 52.4843 80.9017 52.5776 80.629H53.3901C53.3076 80.9519 53.1444 81.2084 52.9005 81.3985C52.6565 81.5887 52.3516 81.6837 51.9857 81.6837C51.6987 81.6837 51.444 81.621 51.2215 81.4954C50.9991 81.3663 50.8251 81.1869 50.6996 80.9573C50.574 80.7241 50.5112 80.4533 50.5112 80.1447ZM53.7483 80.1447C53.7483 79.8362 53.8111 79.5672 53.9367 79.3376C54.0622 79.1044 54.2362 78.925 54.4586 78.7994C54.6811 78.6703 54.9358 78.6057 55.2228 78.6057C55.5923 78.6057 55.8972 78.699 56.1376 78.8855C56.3815 79.0685 56.5447 79.3268 56.6273 79.6604H55.8147C55.7716 79.5313 55.6981 79.4308 55.5941 79.3591C55.4936 79.2837 55.3681 79.2461 55.2174 79.2461C55.0021 79.2461 54.8317 79.325 54.7062 79.4828C54.5806 79.6371 54.5178 79.8577 54.5178 80.1447C54.5178 80.4281 54.5806 80.6488 54.7062 80.8066C54.8317 80.9609 55.0021 81.038 55.2174 81.038C55.5223 81.038 55.7214 80.9017 55.8147 80.629H56.6273C56.5447 80.9519 56.3815 81.2084 56.1376 81.3985C55.8936 81.5887 55.5887 81.6837 55.2228 81.6837C54.9358 81.6837 54.6811 81.621 54.4586 81.4954C54.2362 81.3663 54.0622 81.1869 53.9367 80.9573C53.8111 80.7241 53.7483 80.4533 53.7483 80.1447ZM58.5029 81.6837C58.2159 81.6837 57.9576 81.621 57.728 81.4954C57.4984 81.3663 57.3173 81.1851 57.1845 80.9519C57.0554 80.7187 56.9908 80.4497 56.9908 80.1447C56.9908 79.8398 57.0572 79.5707 57.1899 79.3376C57.3262 79.1044 57.511 78.925 57.7442 78.7994C57.9774 78.6703 58.2375 78.6057 58.5245 78.6057C58.8114 78.6057 59.0715 78.6703 59.3047 78.7994C59.5379 78.925 59.7209 79.1044 59.8536 79.3376C59.9899 79.5707 60.0581 79.8398 60.0581 80.1447C60.0581 80.4497 59.9881 80.7187 59.8482 80.9519C59.7119 81.1851 59.5253 81.3663 59.2886 81.4954C59.0554 81.621 58.7935 81.6837 58.5029 81.6837ZM58.5029 81.0272C58.6393 81.0272 58.7666 80.995 58.885 80.9304C59.007 80.8622 59.1038 80.7618 59.1756 80.629C59.2473 80.4963 59.2832 80.3349 59.2832 80.1447C59.2832 79.8613 59.2079 79.6443 59.0572 79.4936C58.9101 79.3394 58.7289 79.2622 58.5137 79.2622C58.2984 79.2622 58.1173 79.3394 57.9702 79.4936C57.8267 79.6443 57.7549 79.8613 57.7549 80.1447C57.7549 80.4281 57.8249 80.647 57.9648 80.8012C58.1083 80.9519 58.2877 81.0272 58.5029 81.0272ZM63.4251 78.6541V81.6353H62.6663V81.2586C62.5694 81.3878 62.4421 81.49 62.2842 81.5654C62.13 81.6371 61.9614 81.673 61.7784 81.673C61.5452 81.673 61.339 81.6246 61.1596 81.5277C60.9802 81.4272 60.8385 81.282 60.7345 81.0918C60.634 80.8981 60.5838 80.6685 60.5838 80.403V78.6541H61.3372V80.2954C61.3372 80.5322 61.3964 80.7151 61.5147 80.8443C61.6331 80.9698 61.7946 81.0326 61.999 81.0326C62.2071 81.0326 62.3703 80.9698 62.4887 80.8443C62.6071 80.7151 62.6663 80.5322 62.6663 80.2954V78.6541H63.4251ZM65.8204 78.6111C66.1755 78.6111 66.4625 78.7241 66.6814 78.9501C66.9002 79.1725 67.0096 79.4846 67.0096 79.8864V81.6353H66.2563V79.9887C66.2563 79.7519 66.1971 79.5707 66.0787 79.4452C65.9603 79.316 65.7989 79.2515 65.5944 79.2515C65.3863 79.2515 65.2213 79.316 65.0993 79.4452C64.9809 79.5707 64.9217 79.7519 64.9217 79.9887V81.6353H64.1684V78.6541H64.9217V79.0255C65.0222 78.8963 65.1495 78.7959 65.3038 78.7241C65.4616 78.6488 65.6338 78.6111 65.8204 78.6111ZM68.6032 79.273V80.7151C68.6032 80.8156 68.6265 80.8891 68.6731 80.9358C68.7233 80.9788 68.8059 81.0003 68.9207 81.0003H69.2704V81.6353H68.7969C68.1619 81.6353 67.8444 81.3268 67.8444 80.7098V79.273H67.4893V78.6541H67.8444V77.9169H68.6032V78.6541H69.2704V79.273H68.6032Z" fill="#4C4C4C"/>
<rect x="19.4316" y="175.785" width="81.3154" height="14.6487" rx="0.896861" fill="#0239C0"/>
<path d="M51.0375 185.073L50.2088 183.61H49.8537V185.073H49.1003V181.317H50.5102C50.8008 181.317 51.0483 181.369 51.2528 181.473C51.4573 181.574 51.6097 181.712 51.7102 181.888C51.8142 182.06 51.8662 182.253 51.8662 182.469C51.8662 182.716 51.7945 182.94 51.651 183.141C51.5075 183.339 51.294 183.475 51.0106 183.55L51.9093 185.073H51.0375ZM49.8537 183.044H50.4833C50.6877 183.044 50.8402 182.996 50.9407 182.899C51.0411 182.799 51.0913 182.661 51.0913 182.485C51.0913 182.313 51.0411 182.18 50.9407 182.087C50.8402 181.99 50.6877 181.941 50.4833 181.941H49.8537V183.044ZM55.3189 183.518C55.3189 183.626 55.3117 183.723 55.2974 183.809H53.118C53.136 184.024 53.2113 184.192 53.344 184.314C53.4768 184.436 53.64 184.497 53.8337 184.497C54.1135 184.497 54.3126 184.377 54.431 184.137H55.2436C55.1575 184.424 54.9925 184.661 54.7485 184.847C54.5046 185.03 54.205 185.122 53.8499 185.122C53.5629 185.122 53.3046 185.059 53.075 184.933C52.849 184.804 52.6714 184.623 52.5422 184.39C52.4167 184.157 52.3539 183.888 52.3539 183.583C52.3539 183.274 52.4167 183.003 52.5422 182.77C52.6678 182.537 52.8436 182.357 53.0696 182.232C53.2956 182.106 53.5557 182.044 53.8499 182.044C54.1333 182.044 54.3862 182.105 54.6086 182.227C54.8346 182.349 55.0086 182.523 55.1306 182.749C55.2561 182.971 55.3189 183.227 55.3189 183.518ZM54.5386 183.303C54.5351 183.109 54.4651 182.955 54.3288 182.84C54.1925 182.722 54.0256 182.662 53.8283 182.662C53.6418 182.662 53.4839 182.72 53.3548 182.835C53.2292 182.946 53.1521 183.102 53.1234 183.303H54.5386ZM57.0365 182.044C57.2589 182.044 57.4545 182.088 57.6231 182.178C57.7917 182.264 57.9244 182.377 58.0213 182.517V182.092H58.78V185.095C58.78 185.371 58.7244 185.617 58.6132 185.832C58.502 186.051 58.3352 186.223 58.1127 186.349C57.8903 186.478 57.6213 186.542 57.3056 186.542C56.8823 186.542 56.5343 186.444 56.2616 186.246C55.9926 186.049 55.8401 185.78 55.8042 185.439H56.5522C56.5917 185.575 56.676 185.683 56.8051 185.762C56.9379 185.844 57.0975 185.886 57.284 185.886C57.5029 185.886 57.6805 185.819 57.8168 185.687C57.9531 185.557 58.0213 185.36 58.0213 185.095V184.632C57.9244 184.772 57.7899 184.888 57.6177 184.982C57.4491 185.075 57.2553 185.122 57.0365 185.122C56.7854 185.122 56.5558 185.057 56.3477 184.928C56.1397 184.799 55.9746 184.618 55.8527 184.384C55.7343 184.148 55.6751 183.877 55.6751 183.572C55.6751 183.27 55.7343 183.003 55.8527 182.77C55.9746 182.537 56.1379 182.357 56.3423 182.232C56.5504 182.106 56.7818 182.044 57.0365 182.044ZM58.0213 183.583C58.0213 183.4 57.9854 183.244 57.9136 183.114C57.8419 182.982 57.745 182.881 57.6231 182.813C57.5011 182.741 57.3701 182.705 57.2302 182.705C57.0903 182.705 56.9612 182.74 56.8428 182.808C56.7244 182.876 56.6275 182.976 56.5522 183.109C56.4805 183.238 56.4446 183.392 56.4446 183.572C56.4446 183.751 56.4805 183.909 56.5522 184.045C56.6275 184.178 56.7244 184.28 56.8428 184.352C56.9648 184.424 57.0939 184.46 57.2302 184.46C57.3701 184.46 57.5011 184.426 57.6231 184.357C57.745 184.286 57.8419 184.185 57.9136 184.056C57.9854 183.923 58.0213 183.766 58.0213 183.583ZM59.8979 181.737C59.7651 181.737 59.6539 181.696 59.5642 181.613C59.4781 181.527 59.4351 181.421 59.4351 181.296C59.4351 181.17 59.4781 181.066 59.5642 180.983C59.6539 180.897 59.7651 180.854 59.8979 180.854C60.0306 180.854 60.14 180.897 60.2261 180.983C60.3158 181.066 60.3606 181.17 60.3606 181.296C60.3606 181.421 60.3158 181.527 60.2261 181.613C60.14 181.696 60.0306 181.737 59.8979 181.737ZM60.2692 182.092V185.073H59.5158V182.092H60.2692ZM62.1543 185.122C61.9103 185.122 61.6915 185.079 61.4978 184.992C61.3041 184.903 61.1498 184.783 61.035 184.632C60.9238 184.481 60.8628 184.314 60.8521 184.131H61.6108C61.6251 184.246 61.6808 184.341 61.7776 184.417C61.8781 184.492 62.0018 184.53 62.1489 184.53C62.2924 184.53 62.4036 184.501 62.4825 184.444C62.5651 184.386 62.6063 184.313 62.6063 184.223C62.6063 184.126 62.5561 184.054 62.4556 184.008C62.3588 183.957 62.2027 183.904 61.9875 183.846C61.7651 183.792 61.5821 183.737 61.4386 183.679C61.2987 183.622 61.1767 183.534 61.0727 183.416C60.9722 183.297 60.922 183.138 60.922 182.937C60.922 182.772 60.9686 182.621 61.0619 182.485C61.1588 182.349 61.2951 182.241 61.4709 182.162C61.6503 182.083 61.8601 182.044 62.1005 182.044C62.4556 182.044 62.739 182.133 62.9507 182.313C63.1624 182.488 63.279 182.727 63.3005 183.028H62.5794C62.5686 182.91 62.5184 182.817 62.4287 182.749C62.3426 182.677 62.226 182.641 62.079 182.641C61.9426 182.641 61.8368 182.666 61.7615 182.716C61.6897 182.766 61.6538 182.836 61.6538 182.926C61.6538 183.027 61.7041 183.104 61.8045 183.157C61.905 183.208 62.061 183.26 62.2727 183.314C62.4879 183.367 62.6655 183.423 62.8054 183.48C62.9453 183.538 63.0655 183.627 63.166 183.749C63.27 183.868 63.3238 184.026 63.3274 184.223C63.3274 184.395 63.279 184.549 63.1821 184.686C63.0888 184.822 62.9525 184.93 62.7731 185.009C62.5973 185.084 62.3911 185.122 62.1543 185.122ZM64.8229 182.711V184.153C64.8229 184.253 64.8463 184.327 64.8929 184.374C64.9431 184.417 65.0256 184.438 65.1404 184.438H65.4902V185.073H65.0167C64.3817 185.073 64.0642 184.765 64.0642 184.148V182.711H63.709V182.092H64.0642V181.355H64.8229V182.092H65.4902V182.711H64.8229ZM68.8034 183.518C68.8034 183.626 68.7962 183.723 68.7818 183.809H66.6025C66.6204 184.024 66.6957 184.192 66.8285 184.314C66.9612 184.436 67.1244 184.497 67.3182 184.497C67.598 184.497 67.7971 184.377 67.9155 184.137H68.728C68.6419 184.424 68.4769 184.661 68.233 184.847C67.989 185.03 67.6895 185.122 67.3343 185.122C67.0473 185.122 66.789 185.059 66.5594 184.933C66.3334 184.804 66.1558 184.623 66.0267 184.39C65.9011 184.157 65.8383 183.888 65.8383 183.583C65.8383 183.274 65.9011 183.003 66.0267 182.77C66.1522 182.537 66.328 182.357 66.554 182.232C66.78 182.106 67.0401 182.044 67.3343 182.044C67.6177 182.044 67.8706 182.105 68.093 182.227C68.3191 182.349 68.493 182.523 68.615 182.749C68.7406 182.971 68.8034 183.227 68.8034 183.518ZM68.0231 183.303C68.0195 183.109 67.9495 182.955 67.8132 182.84C67.6769 182.722 67.5101 182.662 67.3128 182.662C67.1262 182.662 66.9684 182.72 66.8392 182.835C66.7137 182.946 66.6365 183.102 66.6078 183.303H68.0231ZM70.1066 182.555C70.2035 182.397 70.329 182.273 70.4833 182.183C70.6411 182.094 70.8205 182.049 71.0214 182.049V182.84H70.8223C70.5855 182.84 70.4062 182.896 70.2842 183.007C70.1658 183.118 70.1066 183.312 70.1066 183.588V185.073H69.3532V182.092H70.1066V182.555Z" fill="white"/>
<path d="M59.2093 108.182C58.9637 108.182 58.7405 108.126 58.5396 108.015C58.3419 107.903 58.1856 107.745 58.0708 107.541C57.9592 107.334 57.9034 107.095 57.9034 106.824C57.9034 106.556 57.9608 106.32 58.0756 106.116C58.1936 105.908 58.3531 105.751 58.554 105.642C58.7549 105.531 58.9797 105.475 59.2284 105.475C59.4771 105.475 59.7019 105.531 59.9028 105.642C60.1037 105.751 60.2616 105.907 60.3764 106.111C60.4944 106.315 60.5534 106.553 60.5534 106.824C60.5534 107.095 60.4928 107.334 60.3716 107.541C60.2536 107.745 60.0926 107.903 59.8885 108.015C59.6844 108.126 59.458 108.182 59.2093 108.182ZM59.2093 107.799C59.3655 107.799 59.5122 107.763 59.6493 107.689C59.7864 107.616 59.8965 107.506 59.9794 107.359C60.0655 107.213 60.1085 107.034 60.1085 106.824C60.1085 106.613 60.0671 106.435 59.9842 106.288C59.9012 106.141 59.7928 106.033 59.6589 105.963C59.525 105.889 59.3799 105.853 59.2236 105.853C59.0642 105.853 58.9175 105.889 58.7836 105.963C58.6528 106.033 58.5476 106.141 58.4679 106.288C58.3881 106.435 58.3483 106.613 58.3483 106.824C58.3483 107.037 58.3865 107.217 58.4631 107.364C58.5428 107.511 58.648 107.621 58.7788 107.694C58.9095 107.764 59.053 107.799 59.2093 107.799ZM61.5609 105.943C61.6375 105.794 61.7459 105.677 61.8862 105.594C62.0297 105.511 62.2035 105.47 62.4076 105.47V105.92H62.2928C61.8049 105.92 61.5609 106.184 61.5609 106.714V108.139H61.1257V105.518H61.5609V105.943Z" fill="#4D4D4D"/>
<path d="M22.2276 118.582V119.557H23.2906V119.871H22.2276V120.876H23.4162V121.19H21.8467V118.268H23.4162V118.582H22.2276ZM25.11 118.854C25.389 118.854 25.615 118.939 25.788 119.11C25.961 119.277 26.0475 119.52 26.0475 119.838V121.19H25.6708V119.892C25.6708 119.664 25.6136 119.489 25.4992 119.369C25.3848 119.246 25.2286 119.185 25.0305 119.185C24.8296 119.185 24.6691 119.248 24.5491 119.373C24.432 119.499 24.3734 119.682 24.3734 119.922V121.19H23.9925V118.896H24.3734V119.223C24.4487 119.105 24.5505 119.015 24.6789 118.951C24.81 118.886 24.9537 118.854 25.11 118.854ZM27.1342 119.21V120.562C27.1342 120.674 27.1579 120.753 27.2054 120.801C27.2528 120.845 27.3351 120.867 27.4523 120.867H27.7327V121.19H27.3895C27.1775 121.19 27.0184 121.141 26.9124 121.043C26.8064 120.946 26.7534 120.785 26.7534 120.562V119.21H26.4562V118.896H26.7534V118.319H27.1342V118.896H27.7327V119.21H27.1342ZM30.2869 119.955C30.2869 120.028 30.2827 120.104 30.2743 120.185H28.4411C28.4551 120.411 28.5318 120.588 28.6713 120.717C28.8136 120.842 28.9852 120.905 29.1861 120.905C29.3507 120.905 29.4875 120.867 29.5963 120.792C29.7079 120.714 29.786 120.611 29.8307 120.482H30.2408C30.1794 120.703 30.0567 120.883 29.8725 121.022C29.6884 121.159 29.4596 121.227 29.1861 121.227C28.9685 121.227 28.7732 121.179 28.6002 121.081C28.43 120.983 28.296 120.845 28.1984 120.667C28.1007 120.485 28.0519 120.276 28.0519 120.039C28.0519 119.802 28.0993 119.594 28.1942 119.415C28.2891 119.237 28.4216 119.1 28.5918 119.005C28.7648 118.907 28.9629 118.859 29.1861 118.859C29.4038 118.859 29.5963 118.906 29.7637 119.001C29.9311 119.096 30.0595 119.227 30.1488 119.394C30.2408 119.559 30.2869 119.746 30.2869 119.955ZM29.8934 119.876C29.8934 119.73 29.8614 119.606 29.7972 119.503C29.733 119.397 29.6451 119.318 29.5335 119.264C29.4247 119.209 29.3033 119.181 29.1694 119.181C28.9769 119.181 28.8122 119.242 28.6755 119.365C28.5416 119.488 28.4648 119.658 28.4453 119.876H29.8934ZM31.1705 119.269C31.2374 119.138 31.3323 119.036 31.4551 118.963C31.5806 118.891 31.7327 118.854 31.9113 118.854V119.248H31.8108C31.3839 119.248 31.1705 119.479 31.1705 119.943V121.19H30.7896V118.896H31.1705V119.269ZM33.8476 118.582V119.557H34.9107V119.871H33.8476V120.876H35.0363V121.19H33.4668V118.268H35.0363V118.582H33.8476ZM38.3707 118.854C38.5493 118.854 38.7083 118.892 38.8478 118.967C38.9873 119.04 39.0976 119.15 39.1785 119.298C39.2594 119.446 39.2999 119.626 39.2999 119.838V121.19H38.9232V119.892C38.9232 119.664 38.866 119.489 38.7516 119.369C38.64 119.246 38.4879 119.185 38.2954 119.185C38.0973 119.185 37.9396 119.249 37.8224 119.378C37.7052 119.503 37.6466 119.686 37.6466 119.926V121.19H37.27V119.892C37.27 119.664 37.2128 119.489 37.0984 119.369C36.9868 119.246 36.8347 119.185 36.6422 119.185C36.4441 119.185 36.2864 119.249 36.1692 119.378C36.052 119.503 35.9934 119.686 35.9934 119.926V121.19H35.6126V118.896H35.9934V119.227C36.0688 119.107 36.1692 119.015 36.2948 118.951C36.4231 118.886 36.564 118.854 36.7175 118.854C36.91 118.854 37.0802 118.898 37.2281 118.984C37.376 119.071 37.4862 119.198 37.5587 119.365C37.6229 119.203 37.729 119.078 37.8768 118.988C38.0247 118.899 38.1893 118.854 38.3707 118.854ZM39.7823 120.035C39.7823 119.8 39.8297 119.595 39.9246 119.419C40.0195 119.241 40.1492 119.103 40.3139 119.005C40.4813 118.907 40.6668 118.859 40.8705 118.859C41.0714 118.859 41.2458 118.902 41.3937 118.988C41.5416 119.075 41.6518 119.184 41.7243 119.315V118.896H42.1094V121.19H41.7243V120.763C41.649 120.897 41.536 121.008 41.3853 121.098C41.2374 121.184 41.0644 121.227 40.8663 121.227C40.6626 121.227 40.4785 121.177 40.3139 121.077C40.1492 120.976 40.0195 120.835 39.9246 120.654C39.8297 120.473 39.7823 120.266 39.7823 120.035ZM41.7243 120.039C41.7243 119.866 41.6894 119.715 41.6197 119.587C41.5499 119.458 41.4551 119.361 41.3351 119.294C41.2179 119.224 41.0881 119.189 40.9458 119.189C40.8035 119.189 40.6738 119.223 40.5566 119.29C40.4394 119.357 40.3459 119.454 40.2762 119.583C40.2064 119.711 40.1716 119.862 40.1716 120.035C40.1716 120.21 40.2064 120.364 40.2762 120.495C40.3459 120.623 40.4394 120.722 40.5566 120.792C40.6738 120.859 40.8035 120.893 40.9458 120.893C41.0881 120.893 41.2179 120.859 41.3351 120.792C41.4551 120.722 41.5499 120.623 41.6197 120.495C41.6894 120.364 41.7243 120.212 41.7243 120.039ZM42.9497 118.524C42.8772 118.524 42.8158 118.499 42.7656 118.448C42.7153 118.398 42.6902 118.337 42.6902 118.264C42.6902 118.192 42.7153 118.13 42.7656 118.08C42.8158 118.03 42.8772 118.005 42.9497 118.005C43.0195 118.005 43.0781 118.03 43.1255 118.08C43.1757 118.13 43.2008 118.192 43.2008 118.264C43.2008 118.337 43.1757 118.398 43.1255 118.448C43.0781 118.499 43.0195 118.524 42.9497 118.524ZM43.1339 118.896V121.19H42.753V118.896H43.1339ZM44.1639 118.093V121.19H43.783V118.093H44.1639Z" fill="#727272"/>
<path d="M21.7044 139.46C21.7044 139.175 21.7686 138.92 21.8969 138.694C22.0253 138.465 22.1997 138.287 22.4201 138.158C22.6433 138.03 22.8902 137.966 23.1609 137.966C23.479 137.966 23.7566 138.043 23.9938 138.196C24.2309 138.35 24.4039 138.567 24.5128 138.849H24.0566C23.9756 138.673 23.8584 138.538 23.705 138.443C23.5543 138.348 23.3729 138.301 23.1609 138.301C22.9572 138.301 22.7744 138.348 22.6126 138.443C22.4508 138.538 22.3238 138.673 22.2317 138.849C22.1397 139.022 22.0936 139.226 22.0936 139.46C22.0936 139.692 22.1397 139.895 22.2317 140.071C22.3238 140.244 22.4508 140.378 22.6126 140.473C22.7744 140.568 22.9572 140.615 23.1609 140.615C23.3729 140.615 23.5543 140.569 23.705 140.477C23.8584 140.382 23.9756 140.247 24.0566 140.071H24.5128C24.4039 140.35 24.2309 140.566 23.9938 140.72C23.7566 140.87 23.479 140.946 23.1609 140.946C22.8902 140.946 22.6433 140.883 22.4201 140.757C22.1997 140.629 22.0253 140.452 21.8969 140.226C21.7686 140 21.7044 139.745 21.7044 139.46ZM25.4606 139C25.5275 138.868 25.6224 138.767 25.7452 138.694C25.8707 138.622 26.0228 138.585 26.2014 138.585V138.979H26.1009C25.674 138.979 25.4606 139.21 25.4606 139.673V140.921H25.0797V138.627H25.4606V139ZM28.7337 139.686C28.7337 139.759 28.7295 139.835 28.7212 139.916H26.888C26.9019 140.142 26.9787 140.319 27.1182 140.448C27.2605 140.573 27.4321 140.636 27.633 140.636C27.7976 140.636 27.9343 140.598 28.0431 140.523C28.1547 140.445 28.2329 140.342 28.2775 140.213H28.6877C28.6263 140.434 28.5035 140.614 28.3194 140.753C28.1352 140.89 27.9064 140.958 27.633 140.958C27.4153 140.958 27.22 140.91 27.047 140.812C26.8768 140.714 26.7429 140.576 26.6452 140.398C26.5476 140.216 26.4987 140.007 26.4987 139.77C26.4987 139.533 26.5462 139.325 26.641 139.146C26.7359 138.968 26.8684 138.831 27.0386 138.736C27.2116 138.638 27.4097 138.589 27.633 138.589C27.8506 138.589 28.0431 138.637 28.2105 138.732C28.378 138.827 28.5063 138.958 28.5956 139.125C28.6877 139.29 28.7337 139.477 28.7337 139.686ZM28.3403 139.607C28.3403 139.461 28.3082 139.337 28.244 139.234C28.1799 139.128 28.092 139.048 27.9803 138.995C27.8715 138.94 27.7502 138.912 27.6162 138.912C27.4237 138.912 27.2591 138.973 27.1224 139.096C26.9884 139.219 26.9117 139.389 26.8922 139.607H28.3403ZM29.0941 139.766C29.0941 139.531 29.1416 139.326 29.2364 139.15C29.3313 138.972 29.4611 138.834 29.6257 138.736C29.7931 138.638 29.9786 138.589 30.1823 138.589C30.3832 138.589 30.5576 138.633 30.7055 138.719C30.8534 138.806 30.9636 138.915 31.0361 139.046V138.627H31.4212V140.921H31.0361V140.494C30.9608 140.628 30.8478 140.739 30.6971 140.829C30.5492 140.915 30.3763 140.958 30.1781 140.958C29.9745 140.958 29.7903 140.908 29.6257 140.808C29.4611 140.707 29.3313 140.566 29.2364 140.385C29.1416 140.204 29.0941 139.997 29.0941 139.766ZM31.0361 139.77C31.0361 139.597 31.0013 139.446 30.9315 139.318C30.8618 139.189 30.7669 139.092 30.6469 139.025C30.5297 138.955 30.4 138.92 30.2577 138.92C30.1154 138.92 29.9856 138.954 29.8684 139.021C29.7512 139.088 29.6578 139.185 29.588 139.314C29.5183 139.442 29.4834 139.593 29.4834 139.766C29.4834 139.941 29.5183 140.095 29.588 140.226C29.6578 140.354 29.7512 140.453 29.8684 140.523C29.9856 140.59 30.1154 140.624 30.2577 140.624C30.4 140.624 30.5297 140.59 30.6469 140.523C30.7669 140.453 30.8618 140.354 30.9315 140.226C31.0013 140.095 31.0361 139.943 31.0361 139.77ZM32.5294 138.941V140.293C32.5294 140.405 32.5531 140.484 32.6005 140.531C32.648 140.576 32.7303 140.598 32.8475 140.598H33.1279V140.921H32.7847C32.5726 140.921 32.4136 140.872 32.3076 140.774C32.2015 140.677 32.1485 140.516 32.1485 140.293V138.941H31.8514V138.627H32.1485V138.05H32.5294V138.627H33.1279V138.941H32.5294ZM35.682 139.686C35.682 139.759 35.6779 139.835 35.6695 139.916H33.8363C33.8503 140.142 33.927 140.319 34.0665 140.448C34.2088 140.573 34.3804 140.636 34.5813 140.636C34.7459 140.636 34.8826 140.598 34.9915 140.523C35.1031 140.445 35.1812 140.342 35.2258 140.213H35.636C35.5746 140.434 35.4519 140.614 35.2677 140.753C35.0835 140.89 34.8547 140.958 34.5813 140.958C34.3637 140.958 34.1683 140.91 33.9953 140.812C33.8251 140.714 33.6912 140.576 33.5936 140.398C33.4959 140.216 33.4471 140.007 33.4471 139.77C33.4471 139.533 33.4945 139.325 33.5894 139.146C33.6842 138.968 33.8168 138.831 33.987 138.736C34.16 138.638 34.3581 138.589 34.5813 138.589C34.7989 138.589 34.9915 138.637 35.1589 138.732C35.3263 138.827 35.4546 138.958 35.5439 139.125C35.636 139.29 35.682 139.477 35.682 139.686ZM35.2886 139.607C35.2886 139.461 35.2565 139.337 35.1924 139.234C35.1282 139.128 35.0403 139.048 34.9287 138.995C34.8199 138.94 34.6985 138.912 34.5646 138.912C34.372 138.912 34.2074 138.973 34.0707 139.096C33.9368 139.219 33.86 139.389 33.8405 139.607H35.2886ZM37.6815 139.05C37.7568 138.919 37.8684 138.81 38.0163 138.723C38.167 138.634 38.3414 138.589 38.5395 138.589C38.7431 138.589 38.9273 138.638 39.0919 138.736C39.2593 138.834 39.3905 138.972 39.4854 139.15C39.5802 139.326 39.6277 139.531 39.6277 139.766C39.6277 139.997 39.5802 140.204 39.4854 140.385C39.3905 140.566 39.2593 140.707 39.0919 140.808C38.9273 140.908 38.7431 140.958 38.5395 140.958C38.3441 140.958 38.1712 140.915 38.0205 140.829C37.8726 140.739 37.7596 140.629 37.6815 140.498V142.009H37.3006V138.627H37.6815V139.05ZM39.2384 139.766C39.2384 139.593 39.2035 139.442 39.1338 139.314C39.064 139.185 38.9692 139.088 38.8492 139.021C38.732 138.954 38.6022 138.92 38.4599 138.92C38.3204 138.92 38.1907 138.955 38.0707 139.025C37.9535 139.092 37.8586 139.191 37.7861 139.322C37.7163 139.45 37.6815 139.6 37.6815 139.77C37.6815 139.943 37.7163 140.095 37.7861 140.226C37.8586 140.354 37.9535 140.453 38.0707 140.523C38.1907 140.59 38.3204 140.624 38.4599 140.624C38.6022 140.624 38.732 140.59 38.8492 140.523C38.9692 140.453 39.064 140.354 39.1338 140.226C39.2035 140.095 39.2384 139.941 39.2384 139.766ZM39.9867 139.766C39.9867 139.531 40.0341 139.326 40.129 139.15C40.2238 138.972 40.3536 138.834 40.5182 138.736C40.6856 138.638 40.8712 138.589 41.0749 138.589C41.2758 138.589 41.4502 138.633 41.598 138.719C41.7459 138.806 41.8561 138.915 41.9287 139.046V138.627H42.3137V140.921H41.9287V140.494C41.8533 140.628 41.7403 140.739 41.5897 140.829C41.4418 140.915 41.2688 140.958 41.0707 140.958C40.867 140.958 40.6828 140.908 40.5182 140.808C40.3536 140.707 40.2238 140.566 40.129 140.385C40.0341 140.204 39.9867 139.997 39.9867 139.766ZM41.9287 139.77C41.9287 139.597 41.8938 139.446 41.824 139.318C41.7543 139.189 41.6594 139.092 41.5394 139.025C41.4223 138.955 41.2925 138.92 41.1502 138.92C41.0079 138.92 40.8782 138.954 40.761 139.021C40.6438 139.088 40.5503 139.185 40.4805 139.314C40.4108 139.442 40.3759 139.593 40.3759 139.766C40.3759 139.941 40.4108 140.095 40.4805 140.226C40.5503 140.354 40.6438 140.453 40.761 140.523C40.8782 140.59 41.0079 140.624 41.1502 140.624C41.2925 140.624 41.4223 140.59 41.5394 140.523C41.6594 140.453 41.7543 140.354 41.824 140.226C41.8938 140.095 41.9287 139.943 41.9287 139.77ZM43.7693 140.958C43.5935 140.958 43.4359 140.929 43.2964 140.87C43.1569 140.809 43.0466 140.725 42.9657 140.619C42.8848 140.511 42.8402 140.386 42.8318 140.247H43.2252C43.2364 140.361 43.2894 140.455 43.3843 140.527C43.4819 140.6 43.6089 140.636 43.7651 140.636C43.9102 140.636 44.0246 140.604 44.1083 140.54C44.192 140.476 44.2339 140.395 44.2339 140.297C44.2339 140.197 44.1892 140.123 44.1 140.075C44.0107 140.025 43.8726 139.976 43.6856 139.929C43.5154 139.884 43.3759 139.839 43.2671 139.795C43.161 139.747 43.069 139.679 42.9908 139.59C42.9155 139.498 42.8778 139.378 42.8778 139.23C42.8778 139.113 42.9127 139.005 42.9825 138.908C43.0522 138.81 43.1513 138.733 43.2796 138.677C43.408 138.619 43.5545 138.589 43.7191 138.589C43.973 138.589 44.1781 138.654 44.3343 138.782C44.4906 138.91 44.5743 139.086 44.5855 139.309H44.2046C44.1962 139.189 44.1474 139.093 44.0581 139.021C43.9716 138.948 43.8544 138.912 43.7065 138.912C43.5698 138.912 43.461 138.941 43.3801 139C43.2992 139.058 43.2587 139.135 43.2587 139.23C43.2587 139.305 43.2824 139.368 43.3299 139.418C43.3801 139.466 43.4415 139.505 43.514 139.535C43.5893 139.563 43.6926 139.595 43.8237 139.632C43.9884 139.676 44.1223 139.721 44.2255 139.766C44.3288 139.807 44.4167 139.872 44.4892 139.958C44.5645 140.045 44.6036 140.158 44.6064 140.297C44.6064 140.423 44.5715 140.536 44.5018 140.636C44.432 140.737 44.3329 140.816 44.2046 140.875C44.079 140.93 43.9339 140.958 43.7693 140.958ZM45.956 140.958C45.7802 140.958 45.6226 140.929 45.4831 140.87C45.3435 140.809 45.2333 140.725 45.1524 140.619C45.0715 140.511 45.0269 140.386 45.0185 140.247H45.4119C45.4231 140.361 45.4761 140.455 45.5709 140.527C45.6686 140.6 45.7956 140.636 45.9518 140.636C46.0969 140.636 46.2113 140.604 46.295 140.54C46.3787 140.476 46.4206 140.395 46.4206 140.297C46.4206 140.197 46.3759 140.123 46.2866 140.075C46.1974 140.025 46.0592 139.976 45.8723 139.929C45.7021 139.884 45.5626 139.839 45.4538 139.795C45.3477 139.747 45.2557 139.679 45.1775 139.59C45.1022 139.498 45.0645 139.378 45.0645 139.23C45.0645 139.113 45.0994 139.005 45.1692 138.908C45.2389 138.81 45.338 138.733 45.4663 138.677C45.5947 138.619 45.7412 138.589 45.9058 138.589C46.1597 138.589 46.3648 138.654 46.521 138.782C46.6773 138.91 46.761 139.086 46.7721 139.309H46.3913C46.3829 139.189 46.3341 139.093 46.2448 139.021C46.1583 138.948 46.0411 138.912 45.8932 138.912C45.7565 138.912 45.6477 138.941 45.5668 139C45.4858 139.058 45.4454 139.135 45.4454 139.23C45.4454 139.305 45.4691 139.368 45.5165 139.418C45.5668 139.466 45.6281 139.505 45.7007 139.535C45.776 139.563 45.8793 139.595 46.0104 139.632C46.175 139.676 46.309 139.721 46.4122 139.766C46.5154 139.807 46.6033 139.872 46.6759 139.958C46.7512 140.045 46.7903 140.158 46.7931 140.297C46.7931 140.423 46.7582 140.536 46.6884 140.636C46.6187 140.737 46.5196 140.816 46.3913 140.875C46.2657 140.93 46.1206 140.958 45.956 140.958ZM50.386 138.627L49.6703 140.921H49.2769L48.7244 139.1L48.172 140.921H47.7786L47.0587 138.627H47.4479L47.9753 140.552L48.5445 138.627H48.9337L49.4904 140.557L50.0093 138.627H50.386ZM51.7643 140.958C51.5495 140.958 51.3542 140.91 51.1784 140.812C51.0054 140.714 50.8687 140.576 50.7682 140.398C50.6705 140.216 50.6217 140.007 50.6217 139.77C50.6217 139.535 50.6719 139.329 50.7724 139.15C50.8756 138.969 51.0151 138.831 51.1909 138.736C51.3667 138.638 51.5634 138.589 51.7811 138.589C51.9987 138.589 52.1954 138.638 52.3712 138.736C52.547 138.831 52.6851 138.968 52.7855 139.146C52.8888 139.325 52.9404 139.533 52.9404 139.77C52.9404 140.007 52.8874 140.216 52.7814 140.398C52.6781 140.576 52.5372 140.714 52.3586 140.812C52.1801 140.91 51.982 140.958 51.7643 140.958ZM51.7643 140.624C51.901 140.624 52.0294 140.591 52.1494 140.527C52.2693 140.463 52.3656 140.367 52.4382 140.239C52.5135 140.11 52.5512 139.954 52.5512 139.77C52.5512 139.586 52.5149 139.429 52.4423 139.301C52.3698 139.173 52.2749 139.078 52.1577 139.016C52.0405 138.952 51.9136 138.92 51.7769 138.92C51.6374 138.92 51.509 138.952 51.3918 139.016C51.2774 139.078 51.1853 139.173 51.1156 139.301C51.0458 139.429 51.011 139.586 51.011 139.77C51.011 139.957 51.0444 140.114 51.1114 140.243C51.1812 140.371 51.2732 140.467 51.3876 140.531C51.502 140.593 51.6276 140.624 51.7643 140.624ZM53.822 139C53.889 138.868 53.9839 138.767 54.1066 138.694C54.2322 138.622 54.3843 138.585 54.5628 138.585V138.979H54.4624C54.0355 138.979 53.822 139.21 53.822 139.673V140.921H53.4412V138.627H53.822V139ZM54.8602 139.766C54.8602 139.531 54.9076 139.326 55.0025 139.15C55.0974 138.972 55.2271 138.834 55.3917 138.736C55.5592 138.638 55.7461 138.589 55.9526 138.589C56.1312 138.589 56.2972 138.631 56.4506 138.715C56.6041 138.796 56.7213 138.903 56.8022 139.037V137.824H57.1873V140.921H56.8022V140.49C56.7269 140.626 56.6153 140.739 56.4674 140.829C56.3195 140.915 56.1465 140.958 55.9484 140.958C55.7447 140.958 55.5592 140.908 55.3917 140.808C55.2271 140.707 55.0974 140.566 55.0025 140.385C54.9076 140.204 54.8602 139.997 54.8602 139.766ZM56.8022 139.77C56.8022 139.597 56.7673 139.446 56.6976 139.318C56.6278 139.189 56.5329 139.092 56.413 139.025C56.2958 138.955 56.166 138.92 56.0237 138.92C55.8814 138.92 55.7517 138.954 55.6345 139.021C55.5173 139.088 55.4238 139.185 55.3541 139.314C55.2843 139.442 55.2494 139.593 55.2494 139.766C55.2494 139.941 55.2843 140.095 55.3541 140.226C55.4238 140.354 55.5173 140.453 55.6345 140.523C55.7517 140.59 55.8814 140.624 56.0237 140.624C56.166 140.624 56.2958 140.59 56.413 140.523C56.5329 140.453 56.6278 140.354 56.6976 140.226C56.7673 140.095 56.8022 139.943 56.8022 139.77Z" fill="#727272"/>
<path d="M21.7044 158.892C21.7044 158.607 21.7686 158.352 21.8969 158.126C22.0253 157.897 22.1997 157.719 22.4201 157.59C22.6433 157.462 22.8902 157.398 23.1609 157.398C23.479 157.398 23.7566 157.475 23.9938 157.628C24.2309 157.782 24.4039 157.999 24.5128 158.281H24.0566C23.9756 158.105 23.8584 157.97 23.705 157.875C23.5543 157.78 23.3729 157.733 23.1609 157.733C22.9572 157.733 22.7744 157.78 22.6126 157.875C22.4508 157.97 22.3238 158.105 22.2317 158.281C22.1397 158.454 22.0936 158.658 22.0936 158.892C22.0936 159.124 22.1397 159.327 22.2317 159.503C22.3238 159.676 22.4508 159.81 22.6126 159.905C22.7744 160 22.9572 160.047 23.1609 160.047C23.3729 160.047 23.5543 160.001 23.705 159.909C23.8584 159.814 23.9756 159.679 24.0566 159.503H24.5128C24.4039 159.782 24.2309 159.998 23.9938 160.152C23.7566 160.302 23.479 160.378 23.1609 160.378C22.8902 160.378 22.6433 160.315 22.4201 160.189C22.1997 160.061 22.0253 159.884 21.8969 159.658C21.7686 159.432 21.7044 159.177 21.7044 158.892ZM26.08 160.39C25.8652 160.39 25.6698 160.342 25.4941 160.244C25.3211 160.146 25.1843 160.008 25.0839 159.83C24.9862 159.648 24.9374 159.439 24.9374 159.202C24.9374 158.967 24.9876 158.761 25.0881 158.582C25.1913 158.401 25.3308 158.263 25.5066 158.168C25.6824 158.07 25.8791 158.021 26.0967 158.021C26.3144 158.021 26.5111 158.07 26.6869 158.168C26.8627 158.263 27.0008 158.4 27.1012 158.578C27.2045 158.757 27.2561 158.965 27.2561 159.202C27.2561 159.439 27.2031 159.648 27.097 159.83C26.9938 160.008 26.8529 160.146 26.6743 160.244C26.4957 160.342 26.2976 160.39 26.08 160.39ZM26.08 160.056C26.2167 160.056 26.3451 160.023 26.4651 159.959C26.585 159.895 26.6813 159.799 26.7538 159.671C26.8292 159.542 26.8668 159.386 26.8668 159.202C26.8668 159.018 26.8306 158.861 26.758 158.733C26.6855 158.605 26.5906 158.51 26.4734 158.448C26.3562 158.384 26.2293 158.352 26.0926 158.352C25.953 158.352 25.8247 158.384 25.7075 158.448C25.5931 158.51 25.501 158.605 25.4313 158.733C25.3615 158.861 25.3266 159.018 25.3266 159.202C25.3266 159.389 25.3601 159.546 25.4271 159.675C25.4968 159.803 25.5889 159.899 25.7033 159.963C25.8177 160.025 25.9433 160.056 26.08 160.056ZM28.8743 158.017C29.1534 158.017 29.3794 158.102 29.5524 158.273C29.7254 158.44 29.8119 158.683 29.8119 159.001V160.353H29.4352V159.055C29.4352 158.826 29.378 158.652 29.2636 158.532C29.1492 158.409 28.9929 158.348 28.7948 158.348C28.5939 158.348 28.4335 158.411 28.3135 158.536C28.1963 158.662 28.1377 158.845 28.1377 159.085V160.353H27.7569V158.059H28.1377V158.386C28.2131 158.268 28.3149 158.178 28.4433 158.114C28.5744 158.049 28.7181 158.017 28.8743 158.017ZM31.3673 158.373H30.886V160.353H30.5052V158.373H30.208V158.059H30.5052V157.896C30.5052 157.639 30.5707 157.452 30.7019 157.335C30.8358 157.215 31.0493 157.155 31.3422 157.155V157.473C31.1748 157.473 31.0562 157.507 30.9865 157.574C30.9195 157.638 30.886 157.745 30.886 157.896V158.059H31.3673V158.373ZM32.0081 157.687C31.9356 157.687 31.8742 157.662 31.824 157.611C31.7737 157.561 31.7486 157.5 31.7486 157.427C31.7486 157.355 31.7737 157.293 31.824 157.243C31.8742 157.193 31.9356 157.168 32.0081 157.168C32.0779 157.168 32.1365 157.193 32.1839 157.243C32.2341 157.293 32.2592 157.355 32.2592 157.427C32.2592 157.5 32.2341 157.561 32.1839 157.611C32.1365 157.662 32.0779 157.687 32.0081 157.687ZM32.1923 158.059V160.353H31.8114V158.059H32.1923ZM33.2223 158.432C33.2892 158.301 33.3841 158.199 33.5069 158.126C33.6324 158.054 33.7845 158.017 33.9631 158.017V158.411H33.8626C33.4357 158.411 33.2223 158.642 33.2223 159.105V160.353H32.8414V158.059H33.2223V158.432ZM37.1609 158.017C37.3395 158.017 37.4985 158.055 37.638 158.13C37.7775 158.203 37.8877 158.313 37.9687 158.461C38.0496 158.609 38.09 158.789 38.09 159.001V160.353H37.7133V159.055C37.7133 158.826 37.6561 158.652 37.5417 158.532C37.4301 158.409 37.2781 158.348 37.0855 158.348C36.8874 158.348 36.7298 158.412 36.6126 158.54C36.4954 158.666 36.4368 158.849 36.4368 159.089V160.353H36.0601V159.055C36.0601 158.826 36.0029 158.652 35.8885 158.532C35.7769 158.409 35.6249 158.348 35.4323 158.348C35.2342 158.348 35.0766 158.412 34.9594 158.54C34.8422 158.666 34.7836 158.849 34.7836 159.089V160.353H34.4027V158.059H34.7836V158.39C34.8589 158.27 34.9594 158.178 35.0849 158.114C35.2133 158.049 35.3542 158.017 35.5077 158.017C35.7002 158.017 35.8704 158.061 36.0183 158.147C36.1662 158.234 36.2764 158.36 36.3489 158.528C36.4131 158.366 36.5191 158.241 36.667 158.151C36.8149 158.062 36.9795 158.017 37.1609 158.017ZM40.2115 158.482C40.2868 158.351 40.3984 158.242 40.5463 158.155C40.697 158.066 40.8714 158.021 41.0695 158.021C41.2732 158.021 41.4573 158.07 41.6219 158.168C41.7894 158.266 41.9205 158.404 42.0154 158.582C42.1102 158.758 42.1577 158.963 42.1577 159.198C42.1577 159.429 42.1102 159.636 42.0154 159.817C41.9205 159.998 41.7894 160.139 41.6219 160.24C41.4573 160.34 41.2732 160.39 41.0695 160.39C40.8742 160.39 40.7012 160.347 40.5505 160.261C40.4026 160.171 40.2896 160.061 40.2115 159.93V161.441H39.8306V158.059H40.2115V158.482ZM41.7684 159.198C41.7684 159.025 41.7335 158.874 41.6638 158.746C41.594 158.617 41.4992 158.52 41.3792 158.453C41.262 158.386 41.1323 158.352 40.99 158.352C40.8504 158.352 40.7207 158.387 40.6007 158.457C40.4835 158.524 40.3887 158.623 40.3161 158.754C40.2464 158.882 40.2115 159.032 40.2115 159.202C40.2115 159.375 40.2464 159.527 40.3161 159.658C40.3887 159.786 40.4835 159.885 40.6007 159.955C40.7207 160.022 40.8504 160.056 40.99 160.056C41.1323 160.056 41.262 160.022 41.3792 159.955C41.4992 159.885 41.594 159.786 41.6638 159.658C41.7335 159.527 41.7684 159.373 41.7684 159.198ZM42.5167 159.198C42.5167 158.963 42.5641 158.758 42.659 158.582C42.7539 158.404 42.8836 158.266 43.0482 158.168C43.2156 158.07 43.4012 158.021 43.6049 158.021C43.8058 158.021 43.9802 158.065 44.128 158.151C44.2759 158.238 44.3861 158.347 44.4587 158.478V158.059H44.8437V160.353H44.4587V159.926C44.3834 160.06 44.2703 160.171 44.1197 160.261C43.9718 160.347 43.7988 160.39 43.6007 160.39C43.397 160.39 43.2129 160.34 43.0482 160.24C42.8836 160.139 42.7539 159.998 42.659 159.817C42.5641 159.636 42.5167 159.429 42.5167 159.198ZM44.4587 159.202C44.4587 159.029 44.4238 158.878 44.3541 158.75C44.2843 158.621 44.1894 158.524 44.0695 158.457C43.9523 158.387 43.8225 158.352 43.6802 158.352C43.5379 158.352 43.4082 158.386 43.291 158.453C43.1738 158.52 43.0803 158.617 43.0106 158.746C42.9408 158.874 42.9059 159.025 42.9059 159.198C42.9059 159.373 42.9408 159.527 43.0106 159.658C43.0803 159.786 43.1738 159.885 43.291 159.955C43.4082 160.022 43.5379 160.056 43.6802 160.056C43.8225 160.056 43.9523 160.022 44.0695 159.955C44.1894 159.885 44.2843 159.786 44.3541 159.658C44.4238 159.527 44.4587 159.375 44.4587 159.202ZM46.2993 160.39C46.1235 160.39 45.9659 160.361 45.8264 160.302C45.6869 160.241 45.5767 160.157 45.4957 160.051C45.4148 159.943 45.3702 159.818 45.3618 159.679H45.7552C45.7664 159.793 45.8194 159.887 45.9143 159.959C46.0119 160.032 46.1389 160.068 46.2951 160.068C46.4402 160.068 46.5546 160.036 46.6383 159.972C46.722 159.908 46.7639 159.827 46.7639 159.729C46.7639 159.629 46.7193 159.555 46.63 159.507C46.5407 159.457 46.4026 159.408 46.2156 159.361C46.0454 159.316 45.9059 159.272 45.7971 159.227C45.6911 159.179 45.599 159.111 45.5209 159.022C45.4455 158.93 45.4078 158.81 45.4078 158.662C45.4078 158.545 45.4427 158.437 45.5125 158.34C45.5822 158.242 45.6813 158.165 45.8096 158.109C45.938 158.051 46.0845 158.021 46.2491 158.021C46.503 158.021 46.7081 158.086 46.8644 158.214C47.0206 158.342 47.1043 158.518 47.1155 158.741H46.7346C46.7262 158.621 46.6774 158.525 46.5881 158.453C46.5016 158.38 46.3844 158.344 46.2365 158.344C46.0998 158.344 45.991 158.373 45.9101 158.432C45.8292 158.49 45.7887 158.567 45.7887 158.662C45.7887 158.737 45.8124 158.8 45.8599 158.85C45.9101 158.898 45.9715 158.937 46.044 158.967C46.1194 158.995 46.2226 159.027 46.3537 159.064C46.5184 159.108 46.6523 159.153 46.7555 159.198C46.8588 159.239 46.9467 159.304 47.0192 159.39C47.0945 159.477 47.1336 159.59 47.1364 159.729C47.1364 159.855 47.1015 159.968 47.0318 160.068C46.962 160.169 46.863 160.248 46.7346 160.307C46.609 160.362 46.464 160.39 46.2993 160.39ZM48.486 160.39C48.3102 160.39 48.1526 160.361 48.0131 160.302C47.8736 160.241 47.7633 160.157 47.6824 160.051C47.6015 159.943 47.5569 159.818 47.5485 159.679H47.9419C47.9531 159.793 48.0061 159.887 48.101 159.959C48.1986 160.032 48.3256 160.068 48.4818 160.068C48.6269 160.068 48.7413 160.036 48.825 159.972C48.9087 159.908 48.9506 159.827 48.9506 159.729C48.9506 159.629 48.9059 159.555 48.8167 159.507C48.7274 159.457 48.5892 159.408 48.4023 159.361C48.2321 159.316 48.0926 159.272 47.9838 159.227C47.8777 159.179 47.7857 159.111 47.7075 159.022C47.6322 158.93 47.5945 158.81 47.5945 158.662C47.5945 158.545 47.6294 158.437 47.6992 158.34C47.7689 158.242 47.868 158.165 47.9963 158.109C48.1247 158.051 48.2712 158.021 48.4358 158.021C48.6897 158.021 48.8948 158.086 49.051 158.214C49.2073 158.342 49.291 158.518 49.3022 158.741H48.9213C48.9129 158.621 48.8641 158.525 48.7748 158.453C48.6883 158.38 48.5711 158.344 48.4232 158.344C48.2865 158.344 48.1777 158.373 48.0968 158.432C48.0159 158.49 47.9754 158.567 47.9754 158.662C47.9754 158.737 47.9991 158.8 48.0465 158.85C48.0968 158.898 48.1582 158.937 48.2307 158.967C48.306 158.995 48.4093 159.027 48.5404 159.064C48.705 159.108 48.839 159.153 48.9422 159.198C49.0455 159.239 49.1333 159.304 49.2059 159.39C49.2812 159.477 49.3203 159.59 49.3231 159.729C49.3231 159.855 49.2882 159.968 49.2184 160.068C49.1487 160.169 49.0496 160.248 48.9213 160.307C48.7957 160.362 48.6506 160.39 48.486 160.39ZM52.916 158.059L52.2003 160.353H51.8069L51.2545 158.532L50.702 160.353H50.3086L49.5887 158.059H49.9779L50.5053 159.984L51.0745 158.059H51.4637L52.0204 159.989L52.5394 158.059H52.916ZM54.2943 160.39C54.0795 160.39 53.8842 160.342 53.7084 160.244C53.5354 160.146 53.3987 160.008 53.2982 159.83C53.2006 159.648 53.1517 159.439 53.1517 159.202C53.1517 158.967 53.202 158.761 53.3024 158.582C53.4056 158.401 53.5451 158.263 53.7209 158.168C53.8967 158.07 54.0934 158.021 54.3111 158.021C54.5287 158.021 54.7254 158.07 54.9012 158.168C55.077 158.263 55.2151 158.4 55.3156 158.578C55.4188 158.757 55.4704 158.965 55.4704 159.202C55.4704 159.439 55.4174 159.648 55.3114 159.83C55.2081 160.008 55.0672 160.146 54.8886 160.244C54.7101 160.342 54.512 160.39 54.2943 160.39ZM54.2943 160.056C54.431 160.056 54.5594 160.023 54.6794 159.959C54.7994 159.895 54.8956 159.799 54.9682 159.671C55.0435 159.542 55.0812 159.386 55.0812 159.202C55.0812 159.018 55.0449 158.861 54.9724 158.733C54.8998 158.605 54.8049 158.51 54.6877 158.448C54.5706 158.384 54.4436 158.352 54.3069 158.352C54.1674 158.352 54.039 158.384 53.9218 158.448C53.8074 158.51 53.7154 158.605 53.6456 158.733C53.5758 158.861 53.541 159.018 53.541 159.202C53.541 159.389 53.5744 159.546 53.6414 159.675C53.7112 159.803 53.8032 159.899 53.9176 159.963C54.032 160.025 54.1576 160.056 54.2943 160.056ZM56.352 158.432C56.419 158.301 56.5139 158.199 56.6366 158.126C56.7622 158.054 56.9143 158.017 57.0929 158.017V158.411H56.9924C56.5655 158.411 56.352 158.642 56.352 159.105V160.353H55.9712V158.059H56.352V158.432ZM57.3902 159.198C57.3902 158.963 57.4376 158.758 57.5325 158.582C57.6274 158.404 57.7571 158.266 57.9217 158.168C58.0892 158.07 58.2761 158.021 58.4826 158.021C58.6612 158.021 58.8272 158.063 58.9806 158.147C59.1341 158.228 59.2513 158.335 59.3322 158.469V157.256H59.7173V160.353H59.3322V159.922C59.2569 160.058 59.1453 160.171 58.9974 160.261C58.8495 160.347 58.6765 160.39 58.4784 160.39C58.2747 160.39 58.0892 160.34 57.9217 160.24C57.7571 160.139 57.6274 159.998 57.5325 159.817C57.4376 159.636 57.3902 159.429 57.3902 159.198ZM59.3322 159.202C59.3322 159.029 59.2973 158.878 59.2276 158.75C59.1578 158.621 59.063 158.524 58.943 158.457C58.8258 158.387 58.696 158.352 58.5537 158.352C58.4114 158.352 58.2817 158.386 58.1645 158.453C58.0473 158.52 57.9538 158.617 57.8841 158.746C57.8143 158.874 57.7794 159.025 57.7794 159.198C57.7794 159.373 57.8143 159.527 57.8841 159.658C57.9538 159.786 58.0473 159.885 58.1645 159.955C58.2817 160.022 58.4114 160.056 58.5537 160.056C58.696 160.056 58.8258 160.022 58.943 159.955C59.063 159.885 59.1578 159.786 59.2276 159.658C59.2973 159.527 59.3322 159.375 59.3322 159.202Z" fill="#727272"/>
<path d="M33.1444 208.227H32.0538L31.8529 208.783H31.5085L32.4126 206.297H32.7892L33.6897 208.783H33.3453L33.1444 208.227ZM33.0511 207.962L32.5991 206.699L32.1471 207.962H33.0511ZM34.4101 206.128V208.783H34.0837V206.128H34.4101ZM35.293 207.137C35.3504 207.024 35.4317 206.937 35.5369 206.875C35.6446 206.813 35.7749 206.781 35.928 206.781V207.119H35.8419C35.476 207.119 35.293 207.317 35.293 207.714V208.783H34.9665V206.817H35.293V207.137ZM38.0985 207.725C38.0985 207.787 38.095 207.853 38.0878 207.922H36.5165C36.5284 208.116 36.5942 208.268 36.7138 208.378C36.8358 208.485 36.9828 208.539 37.155 208.539C37.2962 208.539 37.4133 208.507 37.5066 208.442C37.6023 208.375 37.6692 208.287 37.7075 208.177H38.0591C38.0065 208.366 37.9012 208.52 37.7434 208.64C37.5855 208.757 37.3894 208.815 37.155 208.815C36.9685 208.815 36.8011 208.774 36.6528 208.69C36.5069 208.606 36.3921 208.488 36.3084 208.335C36.2247 208.179 36.1828 208 36.1828 207.797C36.1828 207.593 36.2235 207.415 36.3048 207.262C36.3861 207.109 36.4997 206.992 36.6456 206.911C36.7939 206.827 36.9637 206.785 37.155 206.785C37.3416 206.785 37.5066 206.826 37.6501 206.907C37.7936 206.988 37.9036 207.101 37.9802 207.244C38.0591 207.385 38.0985 207.546 38.0985 207.725ZM37.7613 207.657C37.7613 207.532 37.7338 207.426 37.6788 207.337C37.6238 207.247 37.5485 207.178 37.4528 207.133C37.3595 207.085 37.2555 207.061 37.1407 207.061C36.9757 207.061 36.8346 207.114 36.7174 207.219C36.6026 207.324 36.5368 207.47 36.5201 207.657H37.7613ZM38.4075 207.793C38.4075 207.592 38.4481 207.416 38.5295 207.266C38.6108 207.113 38.722 206.994 38.8631 206.911C39.0066 206.827 39.1656 206.785 39.3402 206.785C39.5124 206.785 39.6619 206.822 39.7886 206.896C39.9154 206.97 40.0099 207.064 40.0721 207.176V206.817H40.4021V208.783H40.0721V208.417C40.0075 208.532 39.9106 208.628 39.7815 208.704C39.6547 208.778 39.5064 208.815 39.3366 208.815C39.162 208.815 39.0042 208.772 38.8631 208.686C38.722 208.6 38.6108 208.479 38.5295 208.324C38.4481 208.169 38.4075 207.992 38.4075 207.793ZM40.0721 207.797C40.0721 207.648 40.0422 207.519 39.9824 207.409C39.9226 207.299 39.8413 207.215 39.7384 207.158C39.638 207.098 39.5268 207.068 39.4048 207.068C39.2828 207.068 39.1716 207.097 39.0712 207.155C38.9707 207.212 38.8906 207.296 38.8308 207.406C38.771 207.516 38.7411 207.645 38.7411 207.793C38.7411 207.944 38.771 208.075 38.8308 208.188C38.8906 208.298 38.9707 208.383 39.0712 208.442C39.1716 208.5 39.2828 208.528 39.4048 208.528C39.5268 208.528 39.638 208.5 39.7384 208.442C39.8413 208.383 39.9226 208.298 39.9824 208.188C40.0422 208.075 40.0721 207.945 40.0721 207.797ZM40.8318 207.793C40.8318 207.592 40.8725 207.416 40.9538 207.266C41.0351 207.113 41.1463 206.994 41.2874 206.911C41.4309 206.827 41.5912 206.785 41.7681 206.785C41.9212 206.785 42.0635 206.821 42.195 206.893C42.3266 206.962 42.427 207.054 42.4964 207.169V206.128H42.8264V208.783H42.4964V208.414C42.4318 208.531 42.3361 208.628 42.2094 208.704C42.0826 208.778 41.9344 208.815 41.7645 208.815C41.59 208.815 41.4309 208.772 41.2874 208.686C41.1463 208.6 41.0351 208.479 40.9538 208.324C40.8725 208.169 40.8318 207.992 40.8318 207.793ZM42.4964 207.797C42.4964 207.648 42.4665 207.519 42.4067 207.409C42.3469 207.299 42.2656 207.215 42.1628 207.158C42.0623 207.098 41.9511 207.068 41.8291 207.068C41.7071 207.068 41.5959 207.097 41.4955 207.155C41.395 207.212 41.3149 207.296 41.2551 207.406C41.1953 207.516 41.1654 207.645 41.1654 207.793C41.1654 207.944 41.1953 208.075 41.2551 208.188C41.3149 208.298 41.395 208.383 41.4955 208.442C41.5959 208.5 41.7071 208.528 41.8291 208.528C41.9511 208.528 42.0623 208.5 42.1628 208.442C42.2656 208.383 42.3469 208.298 42.4067 208.188C42.4665 208.075 42.4964 207.945 42.4964 207.797ZM45.0714 206.817L43.8875 209.709H43.5503L43.9377 208.762L43.1449 206.817H43.5073L44.1243 208.41L44.7342 206.817H45.0714ZM47.3318 206.781C47.48 206.781 47.614 206.814 47.7335 206.878C47.8531 206.94 47.9464 207.035 48.0134 207.162C48.0827 207.288 48.1174 207.443 48.1174 207.624V208.783H47.7945V207.671C47.7945 207.475 47.7455 207.326 47.6474 207.223C47.5494 207.117 47.4155 207.065 47.2457 207.065C47.0735 207.065 46.9359 207.119 46.8331 207.226C46.7326 207.334 46.6824 207.491 46.6824 207.696V208.783H46.356V206.128H46.6824V207.097C46.747 206.997 46.8355 206.919 46.9479 206.864C47.0627 206.809 47.1906 206.781 47.3318 206.781ZM48.5287 207.793C48.5287 207.592 48.5694 207.416 48.6507 207.266C48.732 207.113 48.8432 206.994 48.9843 206.911C49.1278 206.827 49.2868 206.785 49.4614 206.785C49.6336 206.785 49.7831 206.822 49.9099 206.896C50.0366 206.97 50.1311 207.064 50.1933 207.176V206.817H50.5233V208.783H50.1933V208.417C50.1287 208.532 50.0318 208.628 49.9027 208.704C49.7759 208.778 49.6276 208.815 49.4578 208.815C49.2833 208.815 49.1254 208.772 48.9843 208.686C48.8432 208.6 48.732 208.479 48.6507 208.324C48.5694 208.169 48.5287 207.992 48.5287 207.793ZM50.1933 207.797C50.1933 207.648 50.1634 207.519 50.1036 207.409C50.0438 207.299 49.9625 207.215 49.8596 207.158C49.7592 207.098 49.648 207.068 49.526 207.068C49.404 207.068 49.2928 207.097 49.1924 207.155C49.0919 207.212 49.0118 207.296 48.952 207.406C48.8922 207.516 48.8623 207.645 48.8623 207.793C48.8623 207.944 48.8922 208.075 48.952 208.188C49.0118 208.298 49.0919 208.383 49.1924 208.442C49.2928 208.5 49.404 208.528 49.526 208.528C49.648 208.528 49.7592 208.5 49.8596 208.442C49.9625 208.383 50.0438 208.298 50.1036 208.188C50.1634 208.075 50.1933 207.945 50.1933 207.797ZM51.8068 208.482L52.4167 206.817H52.7647L51.9934 208.783H51.6131L50.8418 206.817H51.1934L51.8068 208.482ZM54.8796 207.725C54.8796 207.787 54.8761 207.853 54.8689 207.922H53.2976C53.3095 208.116 53.3753 208.268 53.4949 208.378C53.6169 208.485 53.764 208.539 53.9361 208.539C54.0773 208.539 54.1944 208.507 54.2877 208.442C54.3834 208.375 54.4503 208.287 54.4886 208.177H54.8402C54.7876 208.366 54.6823 208.52 54.5245 208.64C54.3666 208.757 54.1705 208.815 53.9361 208.815C53.7496 208.815 53.5822 208.774 53.4339 208.69C53.288 208.606 53.1732 208.488 53.0895 208.335C53.0058 208.179 52.964 208 52.964 207.797C52.964 207.593 53.0046 207.415 53.0859 207.262C53.1672 207.109 53.2808 206.992 53.4267 206.911C53.575 206.827 53.7448 206.785 53.9361 206.785C54.1227 206.785 54.2877 206.826 54.4312 206.907C54.5747 206.988 54.6847 207.101 54.7613 207.244C54.8402 207.385 54.8796 207.546 54.8796 207.725ZM54.5424 207.657C54.5424 207.532 54.5149 207.426 54.4599 207.337C54.4049 207.247 54.3296 207.178 54.2339 207.133C54.1406 207.085 54.0366 207.061 53.9218 207.061C53.7568 207.061 53.6157 207.114 53.4985 207.219C53.3837 207.324 53.3179 207.47 53.3012 207.657H54.5424ZM56.145 207.793C56.145 207.592 56.1857 207.416 56.267 207.266C56.3483 207.113 56.4595 206.994 56.6006 206.911C56.7441 206.827 56.9031 206.785 57.0777 206.785C57.2499 206.785 57.3994 206.822 57.5262 206.896C57.6529 206.97 57.7474 207.064 57.8096 207.176V206.817H58.1396V208.783H57.8096V208.417C57.745 208.532 57.6481 208.628 57.519 208.704C57.3922 208.778 57.244 208.815 57.0742 208.815C56.8996 208.815 56.7417 208.772 56.6006 208.686C56.4595 208.6 56.3483 208.479 56.267 208.324C56.1857 208.169 56.145 207.992 56.145 207.793ZM57.8096 207.797C57.8096 207.648 57.7797 207.519 57.7199 207.409C57.6601 207.299 57.5788 207.215 57.4759 207.158C57.3755 207.098 57.2643 207.068 57.1423 207.068C57.0203 207.068 56.9091 207.097 56.8087 207.155C56.7082 207.212 56.6281 207.296 56.5683 207.406C56.5085 207.516 56.4786 207.645 56.4786 207.793C56.4786 207.944 56.5085 208.075 56.5683 208.188C56.6281 208.298 56.7082 208.383 56.8087 208.442C56.9091 208.5 57.0203 208.528 57.1423 208.528C57.2643 208.528 57.3755 208.5 57.4759 208.442C57.5788 208.383 57.6601 208.298 57.7199 208.188C57.7797 208.075 57.8096 207.945 57.8096 207.797ZM59.6492 206.781C59.8883 206.781 60.082 206.854 60.2303 207C60.3786 207.144 60.4527 207.352 60.4527 207.624V208.783H60.1299V207.671C60.1299 207.475 60.0808 207.326 59.9828 207.223C59.8847 207.117 59.7508 207.065 59.581 207.065C59.4088 207.065 59.2713 207.119 59.1684 207.226C59.068 207.334 59.0178 207.491 59.0178 207.696V208.783H58.6913V206.817H59.0178V207.097C59.0823 206.997 59.1696 206.919 59.2796 206.864C59.3921 206.809 59.5152 206.781 59.6492 206.781ZM61.8205 207.793C61.8205 207.592 61.8611 207.416 61.9424 207.266C62.0237 207.113 62.135 206.994 62.2761 206.911C62.4196 206.827 62.5786 206.785 62.7532 206.785C62.9254 206.785 63.0749 206.822 63.2016 206.896C63.3284 206.97 63.4228 207.064 63.485 207.176V206.817H63.8151V208.783H63.485V208.417C63.4205 208.532 63.3236 208.628 63.1944 208.704C63.0677 208.778 62.9194 208.815 62.7496 208.815C62.575 208.815 62.4172 208.772 62.2761 208.686C62.135 208.6 62.0237 208.479 61.9424 208.324C61.8611 208.169 61.8205 207.992 61.8205 207.793ZM63.485 207.797C63.485 207.648 63.4551 207.519 63.3953 207.409C63.3355 207.299 63.2542 207.215 63.1514 207.158C63.0509 207.098 62.9397 207.068 62.8178 207.068C62.6958 207.068 62.5846 207.097 62.4841 207.155C62.3837 207.212 62.3036 207.296 62.2438 207.406C62.184 207.516 62.1541 207.645 62.1541 207.793C62.1541 207.944 62.184 208.075 62.2438 208.188C62.3036 208.298 62.3837 208.383 62.4841 208.442C62.5846 208.5 62.6958 208.528 62.8178 208.528C62.9397 208.528 63.0509 208.5 63.1514 208.442C63.2542 208.383 63.3355 208.298 63.3953 208.188C63.4551 208.075 63.485 207.945 63.485 207.797ZM64.2448 207.797C64.2448 207.593 64.2854 207.416 64.3667 207.266C64.4481 207.113 64.5605 206.994 64.704 206.911C64.8499 206.827 65.0161 206.785 65.2026 206.785C65.4442 206.785 65.6427 206.844 65.7981 206.961C65.956 207.078 66.06 207.241 66.1102 207.449H65.7587C65.7252 207.329 65.6594 207.235 65.5614 207.165C65.4657 207.096 65.3461 207.061 65.2026 207.061C65.0161 207.061 64.8654 207.126 64.7506 207.255C64.6358 207.382 64.5784 207.562 64.5784 207.797C64.5784 208.033 64.6358 208.216 64.7506 208.346C64.8654 208.475 65.0161 208.539 65.2026 208.539C65.3461 208.539 65.4657 208.506 65.5614 208.439C65.657 208.372 65.7228 208.276 65.7587 208.152H66.1102C66.0576 208.353 65.9524 208.514 65.7946 208.636C65.6367 208.756 65.4394 208.815 65.2026 208.815C65.0161 208.815 64.8499 208.774 64.704 208.69C64.5605 208.606 64.4481 208.488 64.3667 208.335C64.2854 208.182 64.2448 208.002 64.2448 207.797ZM66.4239 207.797C66.4239 207.593 66.4645 207.416 66.5458 207.266C66.6272 207.113 66.7396 206.994 66.8831 206.911C67.0289 206.827 67.1952 206.785 67.3817 206.785C67.6233 206.785 67.8218 206.844 67.9772 206.961C68.1351 207.078 68.2391 207.241 68.2893 207.449H67.9378C67.9043 207.329 67.8385 207.235 67.7405 207.165C67.6448 207.096 67.5252 207.061 67.3817 207.061C67.1952 207.061 67.0445 207.126 66.9297 207.255C66.8149 207.382 66.7575 207.562 66.7575 207.797C66.7575 208.033 66.8149 208.216 66.9297 208.346C67.0445 208.475 67.1952 208.539 67.3817 208.539C67.5252 208.539 67.6448 208.506 67.7405 208.439C67.8361 208.372 67.9019 208.276 67.9378 208.152H68.2893C68.2367 208.353 68.1315 208.514 67.9736 208.636C67.8158 208.756 67.6185 208.815 67.3817 208.815C67.1952 208.815 67.0289 208.774 66.8831 208.69C66.7396 208.606 66.6272 208.488 66.5458 208.335C66.4645 208.182 66.4239 208.002 66.4239 207.797ZM69.5823 208.815C69.3982 208.815 69.2308 208.774 69.0801 208.69C68.9318 208.606 68.8146 208.488 68.7285 208.335C68.6448 208.179 68.603 208 68.603 207.797C68.603 207.596 68.646 207.419 68.7321 207.266C68.8206 207.11 68.9402 206.992 69.0909 206.911C69.2415 206.827 69.4101 206.785 69.5967 206.785C69.7832 206.785 69.9518 206.827 70.1025 206.911C70.2532 206.992 70.3716 207.109 70.4577 207.262C70.5462 207.415 70.5904 207.593 70.5904 207.797C70.5904 208 70.545 208.179 70.4541 208.335C70.3656 208.488 70.2448 208.606 70.0917 208.69C69.9387 208.774 69.7689 208.815 69.5823 208.815ZM69.5823 208.528C69.6995 208.528 69.8095 208.501 69.9124 208.446C70.0152 208.391 70.0977 208.308 70.1599 208.198C70.2245 208.088 70.2568 207.955 70.2568 207.797C70.2568 207.639 70.2257 207.505 70.1635 207.395C70.1013 207.285 70.02 207.204 69.9196 207.151C69.8191 207.096 69.7103 207.068 69.5931 207.068C69.4735 207.068 69.3635 207.096 69.263 207.151C69.165 207.204 69.0861 207.285 69.0263 207.395C68.9665 207.505 68.9366 207.639 68.9366 207.797C68.9366 207.957 68.9653 208.092 69.0227 208.202C69.0825 208.312 69.1614 208.395 69.2595 208.45C69.3575 208.502 69.4651 208.528 69.5823 208.528ZM72.7631 206.817V208.783H72.4367V208.493C72.3745 208.593 72.2872 208.672 72.1748 208.729C72.0648 208.784 71.9428 208.812 71.8089 208.812C71.6558 208.812 71.5183 208.781 71.3963 208.719C71.2743 208.654 71.1775 208.558 71.1057 208.432C71.0364 208.305 71.0017 208.151 71.0017 207.969V206.817H71.3246V207.926C71.3246 208.12 71.3736 208.269 71.4717 208.374C71.5697 208.477 71.7036 208.528 71.8734 208.528C72.048 208.528 72.1856 208.475 72.286 208.367C72.3864 208.259 72.4367 208.103 72.4367 207.897V206.817H72.7631ZM74.2722 206.781C74.5113 206.781 74.7051 206.854 74.8534 207C75.0016 207.144 75.0758 207.352 75.0758 207.624V208.783H74.7529V207.671C74.7529 207.475 74.7039 207.326 74.6058 207.223C74.5078 207.117 74.3738 207.065 74.204 207.065C74.0318 207.065 73.8943 207.119 73.7915 207.226C73.691 207.334 73.6408 207.491 73.6408 207.696V208.783H73.3143V206.817H73.6408V207.097C73.7054 206.997 73.7927 206.919 73.9027 206.864C74.0151 206.809 74.1383 206.781 74.2722 206.781ZM76.0072 207.086V208.245C76.0072 208.341 76.0276 208.409 76.0682 208.45C76.1089 208.488 76.1794 208.507 76.2799 208.507H76.5202V208.783H76.2261C76.0443 208.783 75.908 208.741 75.8171 208.658C75.7262 208.574 75.6808 208.436 75.6808 208.245V207.086H75.4261V206.817H75.6808V206.322H76.0072V206.817H76.5202V207.086H76.0072ZM77.5544 206.25C77.7911 206.25 77.9825 206.317 78.1283 206.451C78.2742 206.585 78.3472 206.765 78.3472 206.989C78.3472 207.241 78.2695 207.427 78.114 207.549C77.9585 207.669 77.7481 207.728 77.4826 207.728L77.4718 208.069H77.1884L77.1741 207.502H77.2781C77.5149 207.502 77.7002 207.467 77.8342 207.395C77.9681 207.323 78.0351 207.188 78.0351 206.989C78.0351 206.846 77.992 206.732 77.9059 206.649C77.8198 206.565 77.7038 206.523 77.5579 206.523C77.4097 206.523 77.2925 206.564 77.2064 206.645C77.1227 206.724 77.0808 206.833 77.0808 206.972H76.7723C76.7723 206.828 76.8046 206.702 76.8692 206.595C76.9337 206.485 77.0246 206.4 77.1418 206.34C77.2614 206.28 77.3989 206.25 77.5544 206.25ZM77.3283 208.805C77.2662 208.805 77.2136 208.783 77.1705 208.74C77.1275 208.697 77.1059 208.644 77.1059 208.582C77.1059 208.52 77.1275 208.468 77.1705 208.424C77.2136 208.381 77.2662 208.36 77.3283 208.36C77.3881 208.36 77.4384 208.381 77.479 208.424C77.5221 208.468 77.5436 208.52 77.5436 208.582C77.5436 208.644 77.5221 208.697 77.479 208.74C77.4384 208.783 77.3881 208.805 77.3283 208.805Z" fill="#727272"/>
<path d="M80.1553 208.453H80.9984V208.783H79.7463V206.29H80.1553V208.453ZM82.1978 208.815C82.0112 208.815 81.8426 208.774 81.6919 208.69C81.5413 208.604 81.4229 208.484 81.3368 208.331C81.2507 208.176 81.2076 207.996 81.2076 207.793C81.2076 207.592 81.2519 207.414 81.3404 207.259C81.4289 207.103 81.5496 206.984 81.7027 206.9C81.8558 206.816 82.0268 206.774 82.2157 206.774C82.4046 206.774 82.5756 206.816 82.7287 206.9C82.8818 206.984 83.0026 207.103 83.091 207.259C83.1795 207.414 83.2238 207.592 83.2238 207.793C83.2238 207.994 83.1783 208.172 83.0875 208.328C82.9966 208.483 82.8722 208.604 82.7144 208.69C82.5589 208.774 82.3867 208.815 82.1978 208.815ZM82.1978 208.46C82.303 208.46 82.4011 208.435 82.4919 208.385C82.5852 208.335 82.6605 208.259 82.7179 208.159C82.7753 208.059 82.804 207.937 82.804 207.793C82.804 207.65 82.7765 207.529 82.7215 207.431C82.6665 207.33 82.5936 207.255 82.5027 207.205C82.4118 207.155 82.3138 207.129 82.2085 207.129C82.1033 207.129 82.0052 207.155 81.9144 207.205C81.8259 207.255 81.7553 207.33 81.7027 207.431C81.6501 207.529 81.6238 207.65 81.6238 207.793C81.6238 208.006 81.6776 208.171 81.7852 208.288C81.8952 208.403 82.0327 208.46 82.1978 208.46ZM84.4245 206.774C84.5775 206.774 84.7127 206.805 84.8299 206.868C84.9494 206.927 85.0427 207.003 85.1097 207.094V206.807H85.5222V208.815C85.5222 208.997 85.484 209.159 85.4074 209.3C85.3309 209.443 85.2197 209.556 85.0738 209.637C84.9303 209.718 84.7581 209.759 84.5572 209.759C84.2894 209.759 84.0669 209.696 83.89 209.569C83.713 209.444 83.6125 209.275 83.5886 209.059H83.994C84.0251 209.162 84.0908 209.245 84.1913 209.307C84.2941 209.372 84.4161 209.404 84.5572 209.404C84.7222 209.404 84.855 209.354 84.9554 209.253C85.0583 209.153 85.1097 209.007 85.1097 208.815V208.485C85.0403 208.579 84.9459 208.658 84.8263 208.722C84.7091 208.784 84.5752 208.815 84.4245 208.815C84.2523 208.815 84.0944 208.772 83.9509 208.686C83.8098 208.598 83.6974 208.476 83.6137 208.32C83.5324 208.163 83.4917 207.984 83.4917 207.786C83.4917 207.587 83.5324 207.412 83.6137 207.259C83.6974 207.105 83.8098 206.987 83.9509 206.903C84.0944 206.817 84.2523 206.774 84.4245 206.774ZM85.1097 207.793C85.1097 207.657 85.081 207.538 85.0236 207.438C84.9686 207.337 84.8956 207.261 84.8047 207.208C84.7139 207.156 84.6158 207.129 84.5106 207.129C84.4053 207.129 84.3073 207.156 84.2164 207.208C84.1255 207.259 84.0514 207.334 83.994 207.434C83.939 207.532 83.9115 207.65 83.9115 207.786C83.9115 207.922 83.939 208.042 83.994 208.145C84.0514 208.247 84.1255 208.326 84.2164 208.381C84.3097 208.434 84.4077 208.46 84.5106 208.46C84.6158 208.46 84.7139 208.434 84.8047 208.381C84.8956 208.329 84.9686 208.252 85.0236 208.152C85.081 208.049 85.1097 207.929 85.1097 207.793ZM86.2675 206.545C86.1933 206.545 86.1311 206.52 86.0809 206.469C86.0307 206.419 86.0056 206.357 86.0056 206.283C86.0056 206.209 86.0307 206.146 86.0809 206.096C86.1311 206.046 86.1933 206.021 86.2675 206.021C86.3392 206.021 86.4002 206.046 86.4504 206.096C86.5007 206.146 86.5258 206.209 86.5258 206.283C86.5258 206.357 86.5007 206.419 86.4504 206.469C86.4002 206.52 86.3392 206.545 86.2675 206.545ZM86.4684 206.807V208.783H86.0594V206.807H86.4684ZM88.0026 206.774C88.1581 206.774 88.2968 206.807 88.4188 206.871C88.5431 206.936 88.64 207.031 88.7093 207.158C88.7787 207.285 88.8134 207.438 88.8134 207.617V208.783H88.408V207.678C88.408 207.501 88.3638 207.366 88.2753 207.273C88.1868 207.177 88.066 207.129 87.9129 207.129C87.7599 207.129 87.6379 207.177 87.547 207.273C87.4585 207.366 87.4143 207.501 87.4143 207.678V208.783H87.0053V206.807H87.4143V207.033C87.4812 206.951 87.5661 206.888 87.669 206.842C87.7742 206.797 87.8854 206.774 88.0026 206.774Z" fill="#0239C0"/>
<line x1="19.4316" y1="106.622" x2="52.3165" y2="106.622" stroke="#9D9D9D" stroke-width="0.209267"/>
<line x1="67.8628" y1="106.622" x2="100.748" y2="106.622" stroke="#BCBCBC" stroke-width="0.209267"/>
<rect x="19.5213" y="89.1778" width="32.4066" height="10.583" rx="0.807175" fill="white" stroke="#BCBCBC" stroke-width="0.179372"/>
<path d="M37.3691 92.2272C37.3691 92.1875 37.3533 92.1495 37.3253 92.1215C37.2972 92.0934 37.2592 92.0777 37.2196 92.0777H36.4722C36.0958 92.0589 35.7274 92.1899 35.4473 92.442C35.1672 92.6941 34.9983 93.0468 34.9774 93.423V94.2302H34.23C34.1904 94.2302 34.1524 94.2459 34.1243 94.2739C34.0963 94.302 34.0806 94.34 34.0806 94.3796V95.1569C34.0806 95.1966 34.0963 95.2346 34.1243 95.2626C34.1524 95.2906 34.1904 95.3064 34.23 95.3064H34.9774V97.3094C34.9774 97.349 34.9932 97.387 35.0212 97.4151C35.0492 97.4431 35.0873 97.4589 35.1269 97.4589H36.0238C36.0634 97.4589 36.1014 97.4431 36.1295 97.4151C36.1575 97.387 36.1732 97.349 36.1732 97.3094V95.3064H36.9565C36.9897 95.3069 37.0222 95.2963 37.0487 95.2762C37.0753 95.2562 37.0943 95.2279 37.103 95.1958L37.3182 94.4185C37.3242 94.3964 37.325 94.3733 37.3206 94.3508C37.3162 94.3284 37.3067 94.3072 37.2928 94.289C37.2789 94.2709 37.2611 94.2561 37.2406 94.2459C37.2201 94.2357 37.1976 94.2303 37.1747 94.2302H36.1732V93.423C36.1807 93.349 36.2154 93.2804 36.2707 93.2307C36.326 93.1809 36.3978 93.1536 36.4722 93.1539H37.2196C37.2592 93.1539 37.2972 93.1382 37.3253 93.1101C37.3533 93.0821 37.3691 93.0441 37.3691 93.0045V92.2272Z" fill="#0239C0"/>
<rect x="68.2513" y="89.1778" width="32.4066" height="10.583" rx="0.807175" fill="white" stroke="#BCBCBC" stroke-width="0.179372"/>
<g clip-path="url(#clip1)">
<path d="M87.5352 94.1828H87.2944V94.1704H84.6038V95.3662H86.2933C86.0468 96.0623 85.3845 96.562 84.6038 96.562C83.6132 96.562 82.8101 95.7589 82.8101 94.7683C82.8101 93.7777 83.6132 92.9746 84.6038 92.9746C85.061 92.9746 85.477 93.1471 85.7938 93.4288L86.6394 92.5832C86.1054 92.0856 85.3912 91.7787 84.6038 91.7787C82.9528 91.7787 81.6143 93.1173 81.6143 94.7683C81.6143 96.4193 82.9528 97.7578 84.6038 97.7578C86.2548 97.7578 87.5933 96.4193 87.5933 94.7683C87.5933 94.5678 87.5727 94.3722 87.5352 94.1828Z" fill="#FFC107"/>
<path d="M81.959 93.3768L82.9412 94.0971C83.207 93.4391 83.8506 92.9746 84.6038 92.9746C85.0611 92.9746 85.4771 93.1471 85.7938 93.4288L86.6394 92.5832C86.1055 92.0856 85.3913 91.7787 84.6038 91.7787C83.4555 91.7787 82.4597 92.427 81.959 93.3768Z" fill="#FF3D00"/>
<path d="M84.6038 97.7578C85.376 97.7578 86.0777 97.4623 86.6082 96.9817L85.6829 96.1988C85.3727 96.4347 84.9936 96.5623 84.6038 96.562C83.8262 96.562 83.166 96.0662 82.9173 95.3743L81.9424 96.1254C82.4372 97.0935 83.4419 97.7578 84.6038 97.7578Z" fill="#4CAF50"/>
<path d="M87.5354 94.1828H87.2946V94.1704H84.604V95.3662H86.2935C86.1756 95.6975 85.9632 95.987 85.6826 96.199L85.6831 96.1987L86.6083 96.9816C86.5429 97.0411 87.5935 96.2631 87.5935 94.7683C87.5935 94.5679 87.5729 94.3722 87.5354 94.1828Z" fill="#1976D2"/>
</g>
</g>
<defs>
<clipPath id="clip0">
<rect width="107.623" height="191.33" fill="white" transform="translate(6.27783 26.9058)"/>
</clipPath>
<clipPath id="clip1">
<rect width="7.17488" height="7.17488" fill="white" transform="translate(81.0166 91.1808)"/>
</clipPath>
</defs>
</svg>
